/* XPM */
/* Drawn  by Mark Donohoe for the K Desktop Environment */
/* See http://www.kde.org */
static char*kghostview[]={
"16 16 17 1",
"# c #000000",
"d c #a0a0a4",
"j c #dcdcdc",
"k c #c05800",
"c c #303030",
"l c #ffa858",
"m c #c0c0c0",
"h c #303030",
"n c #000000",
"g c #a0a0a4",
"a c #ffffff",
"o c #000000",
"e c #a0a0a4",
"i c #dcdcdc",
"f c #585858",
"b c #c0c0c0",
". c None",
".###########....",
"#aaaaaaaaaaa#...",
"#aaaaaaaaaaa#...",
"#abaab###baa#...",
"#aaab#aaa#ba#...",
"#aba#abbaa#a#...",
"#aaa#aaaaa#a#...",
"#abacdeaba#a#...",
"#aa##fgff#h##...",
"#a##fij###kl#...",
"#a#fmag####kl#..",
"#a#ggi####a#kl#.",
"#a#nfg####aa#kl#",
"#aao#####aaa##k#",
"#aaaaaaaaaaa#.##",
".###########...."};

