/* XPM */
static char * diashow_xpm[] = {
"22 22 3 1",
" 	c #FFFFFFFFFFFF",
".	c #000000000000",
"X	c #CF3CCF3CCF3C",
"  ... XXXXXXXXXXX ... ",
"  .X.             .X. ",
"  ................... ",
"  ................... ",
"  .X.             .X. ",
"  ... XXXXX...XXX ... ",
"  ... XXXX....XXX ... ",
"  .X. XXX..X..XXX .X. ",
"  ... XXX.XX..XXX ... ",
"  ... XXXXXX..XXX ... ",
"  .X. XXXX.....XX .X. ",
"  ... XXXX.....XX ... ",
"  ...             ... ",
"  .X...............X. ",
"  ................... ",
"  ...             ... ",
"  .X. XXXXXX..XXX .X. ",
"  ... XXXXX....XX ... ",
"  ... XXXX..XX.XX ... ",
"  .X. XXXXXXXX.XX .X. ",
"  ... XXXXXX...XX ... ",
"  ... XXXX....XXX ... "};
