/* XPM */
static char * random_xpm[] = {
"22 22 4 1",
" 	c #CF3CCF3CCF3C",
".	c #000000000000",
"X	c #79E77DF779E7",
"o	c #FFFFFFFFFFFF",
"                      ",
"           ...        ",
"          ..XX.       ",
"        ...XXX..      ",
"       ..XXXXXX..     ",
"      ..XXXXXXXX..    ",
"    ...XXooXXooXX..   ",
"   ..XXXXooXXooXXX..  ",
"  ...XXXXXXXXXXXX.... ",
"  ....XXXXXXXXXX...X. ",
"  .XX..XXXooXXXX..XX. ",
"  .XXX..XXooXXX..XXX. ",
"  .XXXX..XXXX...XXXX. ",
"  .XXXXX..XX..XXXooX. ",
"  .XXXooX....XXXXooX. ",
"  ..XXooXX..XXXXXXXX. ",
"   ..XXXXX.XXooXXXX.  ",
"     .XXXX.XXooXX.    ",
"      ..XX.XXXXX.     ",
"       ..X.XXX..      ",
"        ...X..        ",
"         ....         "};
