/* XPM */
static char * resize_xpm[] = {
"22 22 3 1",
" 	c None",
".	c #000000000000",
"X	c #79E77DF779E7",
"                      ",
"                      ",
"                      ",
"                      ";
"    ......            ",
"    ..XXXX            ",
"    ...X              ",
"    . ..X             ",
"    .  ..X            ",
"    .   ..X           ",
"         ..X          ",
"          ..X         ",
"           ..X        ",
"            ..X  .X   ",
"             ..X .X   ",
"              ..X.X   ",
"               ...X   ",
"             .....X   ",
"                  X   ",
"                      ",
"                      ",
"                      "};
