/* XPM */
static char*kiconedit[]={
"32 32 15 1",
". c None",
"c c #808080",
"m c #ffa858",
"i c #a0a0a0",
"j c #c3c3c3",
"f c #c0c000",
"g c #808000",
"b c #c05800",
"# c #000000",
"h c #aeb2c3",
"d c #ffff00",
"k c #303030",
"l c #ffdca8",
"a c #dcdcdc",
"e c #ffffff",
"................................",
"................................",
"............................###.",
"...........................#abb#",
"..........................##bbb#",
".........................#c##bb#",
"........................#dccc##.",
".......................#defdc#..",
"......................#defdg#...",
".....................#defdg#....",
"...h#########hh.....#defdg#.....",
"...#ieejejeje##....#defdg#......",
"...#iiiej####jjk..#defdg#.......",
"...#iiie#llll###kkdefdg#........",
"...#iiie#lmm#lllkdefdg#.........",
"...#iiie#jjm#llk##fdg#..........",
"...#iiie#iijcjjlll#gk...........",
"...#iiie###icjjlll#k............",
"...#iiiecji#####llk.............",
"...#iiiecjjjjjj##...............",
"...#iiiejcccccjk................",
"...#iiiecjjjjjck................",
"...#iiiecjcccjck................",
"...#ciiecjjjjjck................",
"...h##iejcccccjk................",
"...hhh#########k................",
"................................",
"................................",
"................................",
"................................",
"................................",
"................................"};
