/* XPM */
static char*kiconedit[]={
"32 32 14 1",
"c c #808080",
"l c #ffa858",
"h c #a0a0a0",
"i c #c3c3c3",
"f c #c0c000",
"g c #808000",
"b c #c05800",
"# c #000000",
"d c #ffff00",
"j c #303030",
"k c #ffdca8",
". c None",
"a c #dcdcdc",
"e c #ffffff",
"................................",
"................................",
"............................###.",
"...........................#abb#",
"..........................##bbb#",
".........................#c##bb#",
"........................#dccc##.",
".......................#defdc#..",
"......................#defdg#...",
".....................#defdg#....",
"....#########.......#defdg#.....",
"...#heeieieie##....#defdg#......",
"...#hhhei####iij..#defdg#.......",
"...#hhhe#kkkk###jjdefdg#........",
"...#hhhe#kll#kkkjdefdg#.........",
"...#hhhe#iil#kkj##fdg#..........",
"...#hhhe#hhiciikkk#gj...........",
"...#hhhe###hciikkk#j............",
"...#hhhecih#####kkj.............",
"...#hhheciiiiii##...............",
"...#hhheicccccij................",
"...#hhheciiiiicj................",
"...#hhhecicccicj................",
"...#chheciiiiicj................",
"....##heicccccij................",
"......#########j................",
"................................",
"................................",
"................................",
"................................",
"................................",
"................................"};
