/* XPM */
/* Drawn for the K Desktop Environment */
/* See http://www.kde.org */
static char*kiconedit[]={
"32 32 22 1",
"d c #ff8000",
"p c #008000",
"s c #0000c0",
". c None",
"m c #c0ffc0",
"t c #000080",
"n c #00ff00",
"c c #ffdca8",
"i c #ffffc0",
"g c #c0c0c0",
"l c #808000",
"h c #a0a0a4",
"o c #00c000",
"# c #000000",
"a c #ffa858",
"j c #ffff00",
"k c #c0c000",
"r c #0000ff",
"f c #ffc0c0",
"b c #c05800",
"e c #ff0000",
"q c #c0c0ff",
"..........................###...",
".........................##aa#..",
"........................#baaaa#.",
".......................#cbaa#aa#",
"......................#ccabaaaa#",
".....................#ccaaabaa##",
"###########.........#ccaaadabb#.",
"#efef#eeee#........#ccaaadadb#..",
"#fefe#eeee#.......#ccaaadadb#...",
"#efef#eeee#......#bcaaadadb#....",
"#fefe#eeee#......#baaadadb#.....",
"################.#gbadadb#......",
"#cccc#aaaa#dddd#.#ggbadb#.......",
"#cccc#aaaa#dddd#.##hhbb#........",
"#cccc#aaaa#dddd#.######.........",
"#cccc#aaaa#dddd#................",
"#####################...........",
"#iiii#jjjj#kkkk#llll#...........",
"#iiii#jjjj#kkkk#llll#...........",
"#iiii#jjjj#kkkk#llll#...........",
"#iiii#jjjj#kkkk#llll#...........",
"##########################......",
"#mmmm#nnnn#oooo#pppp#pppp#......",
"#mmmm#nnnn#oooo#pppp#pppp#......",
"#mmmm#nnnn#oooo#pppp#pppp#......",
"#mmmm#nnnn#oooo#pppp#pppp#......",
"##########################......",
"#qqqq#rqrq#ssss#tsts#tttt#......",
"#qqqq#qrqr#ssss#stst#tttt#......",
"#qqqq#rqrq#ssss#tsts#tttt#......",
"#qqqq#qrqr#ssss#stst#tttt#......",
"##########################......"};
