/* XPM */
static char*mini[]={
"18 18 9 1",
". c None",
"# c #000000",
"a c #585858",
"b c #ffa858",
"c c #ffdca8",
"d c #ffffff",
"e c #c0c0c0",
"f c #a0a0a4",
"g c #808080",
"..................",
"..#a#.............",
".#abc##...........",
".#daabc#####......",
".#dddaabcccb#.....",
".#dddeeabccca.....",
".#ddeeeeaaaab#....",
".#deeeeeeeff#b....",
".#eeeeeeefff#b....",
".#eeeeeeffff#b....",
".#eeeeefffff#b....",
".##geeffffff#b....",
"...##gffffff#b....",
".....##fffff#b....",
".......##fff#b##..",
".........##f#b##..",
"...........####...",
".................."};
