/* XPM */
/* Drawn  by Nico Schwiring for the K Desktop Environment */
/* See http://www.kde.org */
static char*kfax[]={
"32 32 10 1",
"# c #000000",
"a c #c0c0c0",
"b c #ffffff",
"c c #808080",
"d c #585858",
"h c #a0a0a4",
"e c #ff0000",
"f c #00ff00",
"g c #004040",
". c None",
"....................##..........",
"...................#ab##........",
"...................#bbba##......",
"..................#abbbbba##....",
"..................#abccabbba##..",
"..................#bbbbccbbbba##",
"..................#bccbbbabbbba#",
".................#abbbcabbccbba#",
"...........####..#abbbbcbbbbbb#.",
".........##aaaa###bbccbbcccbbb#.",
".......##aacccccc#bbbacbbbacba#.",
".....##aaccccdd###bbbbbcbbbbba#.",
"...##aaccccdd##c##bbbbabbccbb#..",
".##aaccccdd##ccc#ddabbccbbaba#..",
"#aaccccdd##cccccc##ddabbcbbba#..",
"#accccd##ccccddcccc##ddabbbb#...",
"#dcccd#ccccddccddcccc##ddaba#...",
"##dddd#accdccbbccddcccc##dda#...",
"#a####dcaddabccbbccddcecc##dd##.",
"#acddddccaaccbbccbbccddcfcc##gg#",
"#ccccddccacbbccbbccaddcccaadddg#",
"#ddccccccacccbbccaadcccaadddddg#",
".##ddcccccaacccbbcdccaadddddddg#",
"...##ddcccccaacccdaaadddddddddg#",
".....##ddcccccaacdchddddddddddg#",
".......##ddcccccaachdddddddddgg#",
".........##ddcccccchdddddddgg##.",
"...........##ddcccchdddddgg##...",
".............##ddcchdddgg##.....",
"...............##ddhdgg##.......",
".................##hg##.........",
"...................##..........."};

