/* XPM */
static char *magick[] = {
/* columns rows colors chars-per-pixel */
"16 16 11 1",
"  c #000000",
". c #3c3c00",
"X c #303030",
"o c #595959",
"O c #00ff00",
"+ c #ff0000",
"@ c #808080",
"# c #a0a0a4",
"$ c #c0c0c0",
"% c #ffffff",
"& c None",
/* pixels */
"&&&&&&&&&&  &&&&",
"&&&&&&&&& %$  &&",
"&&&&&&&&& %%%$  ",
"&&&&&&&&& %$%%% ",
"&&&&&  @ $%%$%% ",
"&&&  @@  %%%%%$ ",
"&  @@  @. $%%% &",
" @@  @@o@@  $% &",
" oo @o$@oo@+   &",
"   o$@@$@$ooO@X ",
" @@@@$$@$@$@$$o ",
"&  @@@@$$@$$ooo ",
"&&&  @@@@$ooooo ",
"&&&&&  @@@oooX &",
"&&&&&&&  @o  &&&",
"&&&&&&&&&  &&&&&"
};
