/* XPM */
static char * zoomin_xpm[] = {
/* width height num_colors chars_per_pixel */
"16 16 4 1",
/* colors */
" 	c None",
".	c black",
"X	c gray",
"o	c white",
/* pixels */
"                ",
"                ",
"   ....         ",
"  .XXXX.    ..  ",
" .XXoXXX.   ..  ",
" .XoXXXX. ......",
" .XXXXXX. ......",
" .XXXXXX.   ..  ",
"  .XXXX..   ..  ",
"   .......      ",
"        ...     ",
"         ...    ",
"          ...   ",
"           ..   ",
"                ",
"                "};
