/* XPM */
static char*areaselect[]={
"22 22 4 1",
". c None",
"a c #000000",
"b c #aeb2c3",
"# c #303030",
"......................",
"......................",
"......##.##...........",
"....#.......#.........",
"......................",
"..#...........#.......",
"......................",
".#.............#......",
".#.............#......",
"....aabaabaabaa.aabaa.",
".#..abbbbbbbbbb#bbbba.",
".#..bbbbbbbbbbb#bbbbb.",
"....abbbbbbbbb.bbbbba.",
"..#.abbbbbbbbb#bbbbba.",
"....bbbbbbbbb.bbbbbbb.",
"....#.bbbbb.#bbbbbbba.",
"....ab##.##bbbbbbbbba.",
"....bbbbbbbbbbbbbbbbb.",
"....abbbbbbbbbbbbbbba.",
"....aabaabaabaabaabaa.",
"......................",
"......................"};
