/* XPM */
static char*grayscale[]={
"22 22 14 1",
". c None",
"j c #808080",
"l c #a0a0a0",
"b c #c3c3c3",
"h c #000080",
"f c #c0c000",
"e c #808000",
"# c #000000",
"i c #aeb2c3",
"g c #0000c0",
"a c #303030",
"c c #800000",
"d c #c00000",
"k c #585858",
"......................",
"......................",
"......................",
"..#aaaaaaaaaaa........",
"..#bcdbbefbgh#i.......",
"..#cdbbefbghb#i.......",
"..#dbbefbghbb#iiii....",
"..#bb.fbghbbb#.....ii.",
"..#be#aaaaaaaaaaaaaii.",
"..#ef#bbajbbklbbjl#ii.",
"..####bajbbklbbjlb#ii.",
"....i#ajbbklbbjlbb#ii.",
"....i#jbbklbbjlbbj#ii.",
".....#bbklbbjlbbjl#ii.",
".....#bklbbjlbbjlb#ii.",
".....#klbbjlbbjlbb#ii.",
".....#lbbjlbbjlbbb#ii.",
".....##############ii.",
"......................",
"......................",
"......................",
"......................"};
