/* XPM */
static char*line[]={
"22 22 3 1",
". c #aeb2c3",
"# c #aeb2c3",
"a c #303030",
".....................#",
"....................#.",
".........#a........a..",
".........#a......#a...",
".........#a.....#a....",
".........#a....#a.....",
".........#a...#a......",
".........#a..#a.......",
".........#a.#a........",
".........#a#a.........",
".........#aa..........",
".........#a...........",
"........#aa...........",
".......#a#a...........",
"......#a.#a...........",
".....#a..#a...........",
"....#a...#a...........",
"...#a....#a...........",
"...a.....#a...........",
"..a......#a...........",
".#....................",
"#....................."};
