/* XPM */
static char*selectcircle[]={
"22 22 4 1",
". c None",
"# c #000000",
"a c #aeb2c3",
"b c #303030",
"......................",
"........##.##.........",
"......#..aaaa.#.......",
"....#..aa.....a.#.....",
"...#..a.........a.....",
"..a..aa.aa.aa.aa.#a...",
"..#.a.................",
"....a.............#...",
".#aa..............a...",
".#aa..............a#..",
"...a..................",
".#aa..............a#..",
".#aa..............a...",
"....a.............#...",
"..#.a.................",
"..a..aa.aa.aa.aa.#a...",
"...#..a.........a.....",
"....b..aa.....a.#.....",
"......b..aaaa.#.......",
"........##.##.........",
"......................",
"......................"};
