/* XPM */
static char*spraycan[]={
"22 22 6 1",
". c None",
"d c #808080",
"c c #a0a0a0",
"a c #c3c3c3",
"# c #000000",
"b c #ffffff",
"......................",
"......................",
"......................",
"......................",
"........##............",
"#.#..#..#a####........",
".........#ab#b#.......",
"......#..#c#abb#......",
".#.......##aaabb#.....",
"....#....#dcaaabb#....",
".........c#dcaaabb#...",
"..#...#..cd#dcaaabb#..",
"..........cd#dcaaabb#.",
".....#.....cd#dcaaabb#",
"............cd#dcaaa#.",
".............cd#dca#..",
"..............cd#d#...",
"...............cd#....",
"................c.....",
"......................",
"......................",
"......................"};
