/* XPM */
/* Drawn  by Mark Donohoe for the K Desktop Environment */
/* See http://www.kde.org */
static char*kfract[]={
"32 32 11 1",
"# c #000000",
"b c #c0c0ff",
"g c #000080",
"c c #ffffff",
"a c #0000ff",
"i c #000000",
"e c #0000c0",
"f c #ffffff",
"h c #000080",
"d c #0000c0",
". c None",
"................................",
"................................",
"................................",
"................................",
"......................##........",
"......................##........",
"......................##........",
".................#.##abb###....c",
".................##bbaaaaaaa#...",
"................#bbaadddddda#...",
"...............#baadddeeeeeda#..",
"...............#badeeeeeeeeee#..",
"........####..#badeeeeeeeeede#..",
".......#bbaa#.#badeeeeeeeeeee#..",
"..f....#baddd#badeeeeeeeeeee##..",
"..#..##badeedddddeeeeeeeeeee#...",
".###.##eeeeeeeeeeeeeeeeeeeee#...",
".......#geeeh#eeeeeeeeeeeeee##..",
"...f...#iiii#.#eeeeeeeeeeeeeg#..",
"........####..#eeeeeeeeeeeeeg#..",
"...............#eeeeeeeeeeeei#..",
"...............#geeeeeeeeeggh#..",
"................#ggeeeeggiii#...",
".................##ggggiiih##...",
".................#.##iii###.....",
"......................##........",
"......................##........",
"...................f..##........",
"................................",
"................................",
"................................",
"................................"};

