/* XPM */
/* Drawn  by Mark Donohoe for the K Desktop Environment */
/* See http://www.kde.org */
static char*kfract[]={
"32 32 10 1",
"d c #000000",
"a c #dcdcdc",
"c c #ffffff",
"e c #0000c0",
"b c #ffffff",
"h c #000080",
"# c #dcdcdc",
"g c #ffffff",
"f c #0000ff",
". c None",
".....................#abc.......",
"................................",
"................................",
"................................",
"......................dd........",
"......................dd........",
"......................dd........",
".................d.ddeffddd....g",
".................ddfffeefffdd...",
"................dffeeeeeeeefd...",
"...............dfeeeeeeeeeeefd..",
"...............dfeeeeeeeeeeefd..",
"........dddd..dfeeeeeeeeeeeefd..",
".......dffffd.dfeeeeeeeeeeeeed..",
"..b....dfeeeedfeeeeeeeeeeeeedd..",
"..d..ddfeeeeeeeeeeeeeeeeeeeed...",
".ddd.ddeeeeeeeeeeeeeeeeeeeeed...",
".......deeeehdeeeeeeeeeeeeeedd..",
"...b...dhhhhd.deeeeeeeeeeeeeed..",
"........dddd..deeeeeeeeeeeeeed..",
"...............deeeeeeeeeeeeed..",
"...............dheeeeeeeeeeehd..",
"................dhheeeeeeeehd...",
".................ddhhheehhhdd...",
".................d.ddhhhddd.....",
"......................dd........",
"......................dd........",
"...................b..dd........",
"................................",
"................................",
"................................",
"................................"};

