/* XPM */
/* Drawn  by Mark Donohoe for the K Desktop Environment */
/* See http://www.kde.org */
static char*kfract[]={
"16 16 6 1",
"# c #000000",
"a c #ffffff",
"d c #0000c0",
"c c #000000",
"b c #0000c0",
". c None",
"................",
"................",
"...........#....",
"..........##...a",
"........##bb##..",
".......#bbbbbb#.",
"....##.#bbbbbb#.",
"...#bb#bbbbbbb#.",
".#.#bb#bbbbbbb#.",
"....#c.#bbbbbb#.",
".......#bbbbbb#.",
"........##bd##..",
"..........##....",
"...........#....",
"................",
"................"};

