/* XPM */
/* Drawn  by Mark Donohoe for the K Desktop Environment */
/* See http://www.kde.org */
static char*kview[]={
"32 32 25 1",
"# c #000000",
"i c #008000",
"v c #808000",
"a c #c0c0c0",
"w c #800000",
"f c #ff8000",
"u c #004040",
"n c #000080",
"t c #00c000",
"k c #a0a0a4",
"m c #c0ffff",
"j c #c05800",
"g c #ffa858",
"l c #0000ff",
"h c #ffffc0",
"q c #008080",
"r c #808080",
"e c #ff0000",
"d c #585858",
"o c #0000c0",
"p c #00c0c0",
"s c #c0c0ff",
"c c #ffc0c0",
"b c #ffffff",
". c None",
"....................##..........",
"..................##a#..........",
"................##abba#.........",
"..............##abbbbb#.........",
"............##abbbbbbba#........",
"..........##abbbbbbbbbb#........",
"........##abbbbbbbbbbbba#.......",
"......##abbcbbad###dabbb#.......",
"....##abbbeeb#########bba#......",
"..##abbbbeee###fffff###bb#......",
"##abbbbceee###eeggggf###ba#.....",
"#abbbbbbeee##eebgggggh##ab#.....",
".#bbbbbiijd#kbbllffgghk#dba#....",
".#abbbmiii##bblllllfhba##bb#....",
"..#bbbiiii##inllllnnoba##bba#...",
"..#abbbiii##inlolnnooba##bbb#...",
"...#bbbmiid#pbonnnoollk#bbbba#..",
"...#abbbiia##pqqnoollb##bbbbb#..",
"....#bbbbbk###pqrasbb###bbbbba#.",
"....#abbbb#k###qabbcffcmttmmps#.",
".....#bbb#hgk######fffftttupppn#",
".....#ab#hgv#qqd###drffwttuppnn#",
"......##hgv#qqpkkk#drffwttukpnd#",
"......#hgv#rappbbb#drfwabtukpnd#",
".....#hgv#rabbbbbb#drfwabtuknnd#",
"....#hgv#rabbbbbbb#drfwabuukrrd#",
"...#hgv##abbbbbbbb#drfwabbakrrd#",
"..#hgv#.#abbbbbbba#drwwabbakrrd#",
".#hgv#...#bbbbba###drrkabbakrrd#",
"#hgv#....#abba##..#drrkabbakrrd#",
"#gv#......#a##....#drrkabbakrrd#",
".##.......##.......############."};

