/* XPM */
/* Drawn  by Mark Donohoe for the K Desktop Environment */
/* See http://www.kde.org */
static char*kview[]={
"16 16 18 1",
"# c #000000",
"b c #ffffff",
"p c #808080",
"a c #c0c0c0",
"h c #000080",
"o c #a0a0a4",
"g c #0000ff",
"c c #ff0000",
"n c #800000",
"f c #008000",
"j c #00c000",
"m c #008080",
"l c #00c0c0",
"d c #ffc0c0",
"k c #c0ffff",
"i c #ff8000",
"e c #ffa858",
". c None",
".........##.....",
".......##ab#....",
".....##abbb#....",
"...##abbbbba#...",
".##abcc###bb#...",
"#abdcc#cee#ba#..",
"#bbff#fbgee#b#..",
".#bff#fgggb#ba#.",
".#abf##hhhb#bb#.",
"..#bb#e#hdidjkl#",
"..#a#e####iijll#",
"...#e#mlb#injlh#",
"..#e#abbb#inbhh#",
".#e##bbba#nnbop#",
"#e#.#ab###pobop#",
".#...##...#####."};

