/* XPM */
static char*kp[]={
"32 32 33 1",
"# c #000000",
"d c #ffffff",
"D c #717171",
"a c #bebebe",
"z c #6169ae",
"x c #f72820",
"p c #007100",
"m c #8eaedf",
"l c #c7dff7",
"h c #e7d3d7",
"e c #828282",
"u c #303886",
"w c #008282",
"r c #0000ff",
"y c #00ff00",
"b c #ff0000",
"A c #aeefef",
"o c #a220f3",
"j c #9a9a9e",
"E c #868686",
"g c #aaaaae",
"q c #ba8608",
"f c #ff69b6",
"n c #ffaa24",
"t c #000082",
"k c #ffc769",
"c c #820000",
"i c #fff3d7",
". c #966100",
"C c #616161",
"s c #e7e7e7",
"B c #005130",
"v c #309a8e",
"....................##.......###",
"..................##a#.....##bc#",
"................##adda#...#bbbc#",
"..............##addddd#..#bbbc#.",
"............##addddddda##bbaae#.",
"..........##adddddddddd#faaae#..",
"........##adddddddddddd#aage#...",
"......##addhddhdddiidd#d#j##....",
"....##adddbbdbbhdikki#dlm#......",
"..##addddbbbbbbnkkkk#i#m##......",
"##addddhbbbbbbbbkkk#ik.#ea#.....",
"#addddddbbbbbbbokk#ik.#ead#.....",
".#dddddppqbbboorr#ik.#eadda#....",
".#adddspppqboorr#ik.#eadddd#....",
"..#dddppppppptr#ik.#uaddddda#...",
"..#adddppppppt#ik.#uuldddddd#...",
"...#dddsppppv#ik.#uurrdddddda#..",
"...#adddppvv#ik.#uurrdddddddd#..",
"....#dddddv#ik.#ealdddddddddda#.",
"....#adddd#ik.#waddhxxhsyyslzm#.",
".....#ddd#ik.#wwAd#xxxxyyyBzzzu#",
".....#ad#ik.#wwvdd#CxxxcyyBzzuu#",
"......##ik.#wwvvdd#CDxxcyyBjzuC#",
"......#ik.#eavvddd#CDxcasyBjzuC#",
".....#ik.#eadddddd#CDxcasyBjuuC#",
"....#ik.#eaddddddd#CDxcasBBjEDC#",
"...#ik.##adddddddd#CDxcassajEDC#",
"..#ik.#.#addddddda#CDccassajEDC#",
".#ik.#...#ddddda###CDEjassajEDC#",
"#ik.#....#adda##..#CDEjassajEDC#",
"#k.#......#a##....#CDEjassajEDC#",
".##.......##.......############."};
