/* XPM */
static char *magick[] = {
/* columns rows colors chars-per-pixel */
"32 32 26 1",
"  c #000000",
". c #303030",
"X c #595959",
"o c #000080",
"O c #0000be",
"+ c #0000ff",
"@ c #008000",
"# c #00be00",
"$ c #008080",
"% c #00bebe",
"& c #800000",
"* c #be5900",
"= c #ff0000",
"- c #ff00ff",
"; c #808000",
": c #ff8200",
"> c #ffaa59",
", c #808080",
"< c #a0a0a4",
"1 c #bebeff",
"2 c #beffff",
"3 c #ffbebe",
"4 c #ffffbe",
"5 c #c0c0c0",
"6 c #ffffff",
"7 c None",
/* pixels */
"77777777777777777777  7777777   ",
"777777777777777777  5 77777  =& ",
"7777777777777777  5665 777 ===& ",
"77777777777777  566666 77 ===& 7",
"777777777777  566666665  ==55, 7",
"7777777777  56666666666 >555, 77",
"77777777  5666666666666 55<, 777",
"777777  56636636664466 6 <  7777",
"7777  5666==6==364>>4 621 777777",
"77  56666======:>>>> 4 1  777777",
"  566663========>>> 4>; ,5 77777",
" 5666666=======->> 4>; ,56 77777",
"7 66666@@*===--++ 4>* ,5665 7777",
"7 56662@@@*=--++ 4>; ,56666 7777",
"77 666@@@@@@@o+ 4>; o5666665 777",
"77 5666@@@@@@o 4>; oO1666666 777",
"777 6662@@@@% 4>; oO++6666665 77",
"777 5666@@%% 4>; oO++66666666 77",
"7777 66666% 4>* ,5166666666665 7",
"7777 56666 4>; $5663::32##22%1 7",
"77777 666 4>; $$26 ::::###.%%%o ",
"77777 56 4>; $$%66 X:::&##.%%oo ",
"777777  4>; $$%%66 X,::&##$<%oX ",
"777777 4>; ,5%%666 X,:&56#.<%oX ",
"77777 4>; ,5666666 X,:&56#.<ooX ",
"7777 4>; ,56666666 X,:&56..<,,X ",
"777 4>*  566666666 X,:&5665<,,X ",
"77 4>; 7 566666665 X,&&5665<,,X ",
"7 4>; 777 666665   X,,<5665<,,X ",
" 4>; 7777 5665  77 X,,<5665<,,X ",
" >; 777777 5  7777 X,,<5665<,,X ",
"7  7777777  7777777            7"
};
