/* XPM */
/* Drawn  by Nico Shirwing for the K Desktop Environment */
/* See http://www.kde.org */
static char*kpaint[]={
"32 32 25 1",
"# c #000000",
"a c #c0c0c0",
"d c #ffffff",
"e c #808080",
"w c #585858",
"g c #a0a0a4",
"c c #800000",
"n c #008000",
"q c #000080",
"t c #008080",
"m c #808000",
"u c #00c000",
"r c #0000c0",
"s c #00c0c0",
"b c #ff0000",
"p c #0000ff",
"h c #ffc0c0",
"k c #c0c0ff",
"j c #c0ffff",
"i c #ffffc0",
"l c #ff8000",
"o c #c05800",
"f c #ffa858",
"v c #004040",
". c None",
"....................##.......###",
"..................##a#.....##bc#",
"................##adda#...#bbbc#",
"..............##addddd#..#bbbc#.",
"............##addddddda##bbaae#.",
"..........##adddddddddd#faaae#..",
"........##adddddddddddd#aage#...",
"......##addhddhdddiidd#d#g##....",
"....##adddbbdbbhdiffi#djk#......",
"..##addddbbbbbblffff#i#k##......",
"##addddhbbbbbbbbfff#ifm#ea#.....",
"#addddddbbbbbbbdff#ifm#ead#.....",
".#dddddnnobbbddpp#ifm#eadda#....",
".#adddjnnnobddpp#ifm#eadddd#....",
"..#dddnnnnnnnqp#ifm#qaddddda#...",
"..#adddnnnnnnq#ifm#qrkdddddd#...",
"...#dddjnnnns#ifm#qrppdddddda#..",
"...#adddnnss#ifm#qrppdddddddd#..",
"....#ddddds#ifm#eakdddddddddda#.",
"....#adddd#ifm#taddhllhjuujjsk#.",
".....#ddd#ifm#ttjd#lllluuuvsssq#",
".....#ad#ifm#ttsdd#wlllcuuvssqq#",
"......##ifm#ttssdd#wellcuuvgsqw#",
"......#ifm#eassddd#welcaduvgsqw#",
".....#ifm#eadddddd#welcaduvgqqw#",
"....#ifm#eaddddddd#welcadvvgeew#",
"...#ifm##adddddddd#welcaddageew#",
"..#ifm#.#addddddda#weccaddageew#",
".#ifm#...#ddddda###weegaddageew#",
"#ifm#....#adda##..#weegaddageew#",
"#fm#......#a##....#weegaddageew#",
".##.......##.......############."};

