/* XPM */
static char *magick[] = {
/* columns rows colors chars-per-pixel */
"16 16 20 1",
"  c #000000",
". c #000080",
"X c #0000ff",
"o c #008000",
"O c #00be00",
"+ c #008080",
"@ c #00bebe",
"# c #800000",
"$ c #ff0000",
"% c #be00be",
"& c #ff8200",
"* c #ffaa59",
"= c #808080",
"- c #a0a0a4",
"; c #beffff",
": c #ffbebe",
"> c #ffffbe",
", c #c0c0c0",
"< c #ffffff",
"1 c None",
/* pixels */
"111111111  11   ",
"1111111  ,<  $$ ",
"11111  ,<<< $$ 1",
"111  ,<<<<< $ 11",
"1  ,<$$:>* * 111",
" ,<:$$$$* * , 11",
" <<oo$%X * ,< 11",
"1 <ooo. * .<<, 1",
"1 ,<oo * .X<<< 1",
"11 << * .:&:O;@ ",
"11 , * +; &&O@@ ",
"111 * +@< &#O@. ",
"11 * ,<<< &#<.. ",
"1 *  <<<, ##<-= ",
" * 1 ,<   =-<-= ",
"1 111  111     1"
};
