/* XPM */
static char *magick[] = {
/* columns rows colors chars-per-pixel */
"32 196 9 1",
"  c #dfdfdf",
". c #a0a0a4",
"X c #595959",
"o c #ffffff",
"O c #c0c0c0",
"+ c #808080",
"@ c #000000",
"# c #303030",
"$ c #000080",
/* pixels */
"                              . ",
"XXXXXXXXXXXXXXXXXXXXXXXXXo O  OO",
"oooooooooooooooooooooooooo   OOO",
"   ooooooooooooooooooooXX  O  OO",
" O oXXXXXXXXXXXXXXXXXXXXX     OO",
"   XX+X+X+X+X+X+X+X+X+X+X   O OO",
"   oooooooooooooooooooooX  O  OO",
" O ooooooooooooooooooooXX     OO",
"   oXXXXXXXXXXXXXXXXXXX+X  O  . ",
"O  XXX+X+X+X+X+X+X+X+X+XX     OO",
"                          O O OO",
" O                            OO",
"   O   O  O  O  O  O  O  O  O OO",
" O   O     O     O     O  O   OO",
"   O   O O   O O   O O      O OO",
" O   O     O     O      O O   OO",
"   O   O     O     O O      O OO",
" O   O   O O   O O      O O   OO",
"   O   O     O     O O      O OO",
" O   O   @@@@@@@@O      O O   OO",
"   O   O @oooooo @ O O      O OO",
" O   O   @oooooo  @     O O   OO",
"   O   O @oooooo o @ O      O OO",
" O   O   @oooooo @@@@   O O   OO",
"   O   O @ooooooo   @ O     O OO",
" O   O   @ooooooooo @  O  O   OO",
"   O   O @oooooooooo@    O  O OO",
" O   O   @oooooooooo@O O      OO",
"   O   O @oooooooooo@    O O  OO",
" O   O   @oooooooooo@  O      OO",
"   O   O @oooooooooo@ O  O O OOO",
" O   O   @oooooooooo@         OO",
"   O   O @oooooooooo@ O O  O  OO",
" O   O   @oooooooooo@    O    OO",
"   O   O @@@@@@@@@@@@ O    O  . ",
" O   O                   O    OO",
"   O   O O O O O O O O O   O  OO",
" O   O                   O    OO",
"   O   O O O O O O O O     O OOO",
" O   O                 O O    OO",
"   O   O  O  O  O  O  O    O  OO",
" O   O  O  O  O  O  O     O   OO",
"   O                  O O   O OO",
" O    O O O O O O O O     O   OO",
"   O                  O  O  O OO",
" O    O  O  O O @@@@O  O      OO",
"   O    O          @@ @  O O  OO",
" O  O O    O O O O  @@@O      OO",
"        O         O @@@  O O OOO",
"  O O O   O O O O  @@@@       OO",
" O     @@@@       O    O O  O OO",
"     O @ o @@@@@@@   O        OO",
" O O   @o o o o o@ O   O O O  OO",
"     O @ oOo o o @   O        OO",
" O     @o o oO@@@@@@@@@@ O O  . ",
"   O O @ o o @ X X X XX@      OO",
" O     @o oO@ X X X+X+@  O O  OO",
"  O  O @ o @XX +X+X+X@        OO",
"    O  @o @ XoXX+X+X@  O O O OOO",
"  O    @@@ XoXX+X+X@          OO",
" O  O O@@XXXX++X+X#   O O  O  OO",
"       @@@@#@@@@@@  O    O    OO",
" O O               O  O    O  . ",
"      O O   O    O       O    OO",
" O O      O   O    O O O   O  OO",
"      O O   O    O       O    OO",
" O O      O   O O  O  O    O OOO",
"      O O   O       O    O    OO",
" O O      O   O O     O   O   OO",
"      O O   O     O O   O   O OO",
" O O      O   O  O    O   O   OO",
"      O O   O  O    O   O  O  OO",
" O O      O      O    O      OOO",
"      O O    O O  O O    O O  OO",
" O O      O          O O      OO",
"     O O O   O O O O     O  O OO",
" O  O      O         O     O  OO",
"  O   O  O    O  O O   O O    OO",
"    O   O  O    O    O     O  . ",
"O O   O     O O    O  O  O    OO",
"    O   O       O       O  O  OO",
"  O   O   O O O   O O O       OO",
"    O   O       O       O O O OO",
"O O      O  O O     O O       OO",
"    O O    @@@@ O O     O O  OOO",
"  O     O @    @   O  O       OO",
" O  O  O @ Oo O @    O  O O O OO",
"     O   @ o    @O O          OO",
" O     O @  O  O@    O O O  O OO",
"   O O   @O  O  @  O      O   OO",
" O     O  @    @@    O  O   O OO",
"  O  O  O  @@@@@@@ O  O       OO",
"    O     O     @@@     O O   OO",
"  O     O   O O  @@@O O     O OO",
" O  O O   O     O @@@   O  O  OO",
"        @@@@@ O    @@ O  O    OO",
" O O  O         O          O  . ",
"    O   O O O O  O O O O O    OO",
" O    O                    O  OO",
"    O    O  O O O O O  O O  O OO",
" O    O    O          O       OO",
"    O  O O     O  O O     O O OO",
" O         O O   O    O O     OO",
"   O O O O     O    O      O  OO",
" O         O  O  O    O O    OOO",
"    O  O O  O       O      O  OO",
" O    O       O O O   O O     OO",
"  O O     O O       O     O O OO",
"      O O     O O  O  O  O    OO",
"  O O    O  O    O     O   O  OO",
" O    O    O  O    O     O   OOO",
"    O    O @@@@  O   O O      OO",
" O    O   @    @   O     O O  OO",
"    O  O @O o O @O    O O     OO",
" O       @ o O  @  O      O O OO",
"   O O O @ O    @O    O O     OO",
" O       @   O  @  O      O  OOO",
"  O  O O  @O   @@O   O O O    OO",
"    O    O @@@@@@@ O       O  OO",
"  O    O        @@@    O O    OO",
" O  O    O@ O O  @@@ O     O OOO",
"       O  @       @@@ O  O    OO",
" O O O  @@@@@ O O  @@   O  O  OO",
"      O   @       O   O       OO",
" O  O   O @ O O  O  O   O O O OO",
"  O   O        O      O       OO",
"    O   O O O    O O    O O  OOO",
"O O   O        O      O       OO",
"    O   O O O    O O    O O   OO",
"  O   O        O    O O     O OO",
"    O   O O O    O      O  O  OO",
"O O   O      O O    O O  O    OO",
"    O   O  O     O         O  . ",
"  O      O     O   O O O O    OO",
" O  O O    O O   O         O  OO",
"         O     O  O  O  O O   OO",
" O O O O   O  O     O  O    O OO",
"        @@@@@@    O       O   OO",
" O O  O @@X++X  O   O O  O  O OO",
"    O   @@@+      O    O      OO",
" O    O @ @@+ O O   O    O O  OO",
"    O   @  @@X    O    O      OO",
" O    O @ O @@+ O   O    O O OOO",
"    O        @@X  O  O O      OO",
" O O  O O O   @@+       O O   OO",
"            O  @@+O O O     O OO",
" O O O O  O     @@+  @X  O    OO",
"        O    O O @@X @+     O OO",
" O O  O   O       @@+@+ O O   OO",
"    O   O   O O O  @@@X    O  OO",
" O    O   O      @@@@@+  O   OOO",
"    O   O    O  O     +O      OO",
" O    O   O    O  O      O O  OO",
"    O   O    O       O O      OO",
" O O      O O  O O O    O O O OO",
"      O O             O       OO",
" O O     O O O O  O O   O O  OOO",
"     O O        O     O       OO",
" O  O    O O  O   O  O  O O   OO",
"  O    O    O      O        O OO",
"    O    O    O O    O O  O   OO",
"  O    O    O      O       O  OO",
" O  O O  O    O O    O O O   OOO",
"          O O    O O          OO",
" O O O O      O      O O O O  OO",
"          O O    O O          OO",
" O O  O O     O      O  O O O OO",
"    O      O O   O O  O       OO",
" O    O O      O        O  O  OO",
"    O      O O   O  O O  O    OO",
" O    O O      O   O       O OOO",
"  O O      O O   O     O O    OO",
"      O O      O   O O     O  OO",
"  O O  @   O O  $$$$$+O  O    OO",
" O    O@@ O    $$  +$$.O   O  . ",
"    O  @@@  O $$+   $$$  O    OO",
" O    O@@@@   $$+ O $$$    O  OO",
"    O  @@@@@O +$$  +$$+  O  O OO",
" O     @@@@@@      $$+  O     OO",
"   O O @@@@@@@  O $$  O     O OO",
" O     @@@@@@@@  $$+    O O   OO",
"  O  O @@@@@  O  $$+  O    O  OO",
"    O  @@ @@    O    O  O    OOO",
"  O    @   @@ O  $$$       O  OO",
" O  O O  O @@    $$$ O O O    OO",
"       O    @@O O           O OO",
" O O     O O@@    O O  O O    OO",
"     O O        O    O      O OO",
" O  O    O  O O   O    O O    OO",
"  O    O  O     O    O      O OO",
"    O       O  O  O    O O    . ",
"O O   O O O  O      O O    O  OO",
"    O          O O      O    OOO",
"  O   O  O O O      O O    O  OO",
" O      O      O O      O     OO",
"OO .OO.OOOOO.OOOOOO.OOO. .OO.OOO"
};
