/* XPM */
static char *toolbar1[] = {
/* width height num_colors chars_per_pixel */
"    32   196       10            1",
/* colors */
". c #000000",
"# c #ffffff",
"a c #c3c3c3",
"b c #d7d7d7",
"c c #696969",
"d c #dfdfdf",
"e c #6d6d6d",
"f c #797d79",
"g c #000086",
"h c #868286",
/* pixels */
"bbbbbbbbbbbbbbbbbbbbbbbbbbbbbbaa",
"ccccccccccccccccccccccccc#bbbbaa",
"##########################bbbbaa",
"bbb####################ccbbbbbaa",
"bbb#cccccccccccccccccccccbbbbbaa",
"bbbccccccccccccccccccccccbbbbbaa",
"bbb#####################cbbbbbaa",
"bbb####################ccbbbbbaa",
"bbb#cccccccccccccccccccccbbbbbaa",
"bbbccccccccccccccccccccccbbbbbaa",
"bbbbbbbbbbbbbbbbbbbbbbbbbbbbbbaa",
"bbbbbbbbbbbbbbbbbbbbbbbbbbbbbbaa",
"bbbbbbbbbbbbbbbbbbbbbbbbbbbbbbaa",
"bbbbbbbbbbbbbbbbbbbbbbbbbbbbbbaa",
"bbbbbbbbbbbbbbbbbbbbbbbbbbbbbbaa",
"bbbbbbbbbbbbbbbbbbbbbbbbbbbbbbaa",
"bbbbbbbbbbbbbbbbbbbbbbbbbbbbbbaa",
"bbbbbbbbbbbbbbbbbbbbbbbbbbbbbbaa",
"bbbbbbbbbbbbbbbbbbbbbbbbbbbbbbaa",
"bbbbbbbbb........bbbbbbbbbbbbbaa",
"bbbbbbbbb.######d.bbbbbbbbbbbbaa",
"bbbbbbbbb.######bd.bbbbbbbbbbbaa",
"bbbbbbbbb.######b#d.bbbbbbbbbbaa",
"bbbbbbbbb.######b....bbbbbbbbbaa",
"bbbbbbbbb.#######bbb.bbbbbbbbbaa",
"bbbbbbbbb.#########d.bbbbbbbbbaa",
"bbbbbbbbb.##########.bbbbbbbbbaa",
"bbbbbbbbb.##########.bbbbbbbbbaa",
"bbbbbbbbb.##########.bbbbbbbbbaa",
"bbbbbbbbb.##########.bbbbbbbbbaa",
"bbbbbbbbb.##########.bbbbbbbbbaa",
"bbbbbbbbb.##########.bbbbbbbbbaa",
"bbbbbbbbb.##########.bbbbbbbbbaa",
"bbbbbbbbb.##########.bbbbbbbbbaa",
"bbbbbbbbb............bbbbbbbbbaa",
"bbbbbbbbbbbbbbbbbbbbbbbbbbbbbbaa",
"bbbbbbbbbbbbbbbbbbbbbbbbbbbbbbaa",
"bbbbbbbbbbbbbbbbbbbbbbbbbbbbbbaa",
"bbbbbbbbbbbbbbbbbbbbbbbbbbbbbbaa",
"bbbbbbbbbbbbbbbbbbbbbbbbbbbbbbaa",
"bbbbbbbbbbbbbbbbbbbbbbbbbbbbbbaa",
"bbbbbbbbbbbbbbbbbbbbbbbbbbbbbbaa",
"bbbbbbbbbbbbbbbbbbbbbbbbbbbbbbaa",
"bbbbbbbbbbbbbbbbbbbbbbbbbbbbbbaa",
"bbbbbbbbbbbbbbbbbbbbbbbbbbbbbbaa",
"bbbbbbbbbbbbbbbb....bbbbbbbbbbaa",
"bbbbbbbbbbbbbbbbbbb..b.bbbbbbbaa",
"bbbbbbbbbbbbbbbbbbbb...bbbbbbbaa",
"bbbbbbbbbbbbbbbbbbbb...bbbbbbbaa",
"bbbbbbbbbbbbbbbbbbb....bbbbbbbaa",
"bbbbbbb....bbbbbbbbbbbbbbbbbbbaa",
"bbbbbbb.b#b.......bbbbbbbbbbbbaa",
"bbbbbbb.#b#b#b#b#.bbbbbbbbbbbbaa",
"bbbbbbb.b#b#b#b#b.bbbbbbbbbbbbaa",
"bbbbbbb.#b#b#b..........bbbbbbaa",
"bbbbbbb.b#b#b.bebebebee.bbbbbbaa",
"bbbbbbb.#b#b.bebebeeee.bbbbbbbaa",
"bbbbbbb.b#b.eebeeeeee.bbbbbbbbaa",
"bbbbbbb.#b.bebeeeeee.bbbbbbbbbaa",
"bbbbbbb...bebeeeeee.bbbbbbbbbbaa",
"bbbbbbb..eeeeeeeee.bbbbbbbbbbbaa",
"bbbbbbb...........bbbbbbbbbbbbaa",
"bbbbbbbbbbbbbbbbbbbbbbbbbbbbbbaa",
"bbbbbbbbbbbbbbbbbbbbbbbbbbbbbbaa",
"bbbbbbbbbbbbbbbbbbbbbbbbbbbbbbaa",
"bbbbbbbbbbbbbbbbbbbbbbbbbbbbbbaa",
"bbbbbbbbbbbbbbbbbbbbbbbbbbbbbbaa",
"bbbbbbbbbbbbbbbbbbbbbbbbbbbbbbaa",
"bbbbbbbbbbbbbbbbbbbbbbbbbbbbbbaa",
"bbbbbbbbbbbbbbbbbbbbbbbbbbbbbbaa",
"bbbbbbbbbbbbbbbbbbbbbbbbbbbbbbaa",
"bbbbbbbbbbbbbbbbbbbbbbbbbbbbbbaa",
"bbbbbbbbbbbbbbbbbbbbbbbbbbbbbbaa",
"bbbbbbbbbbbbbbbbbbbbbbbbbbbbbbaa",
"bbbbbbbbbbbbbbbbbbbbbbbbbbbbbbaa",
"bbbbbbbbbbbbbbbbbbbbbbbbbbbbbbaa",
"bbbbbbbbbbbbbbbbbbbbbbbbbbbbbbaa",
"bbbbbbbbbbbbbbbbbbbbbbbbbbbbbbaa",
"bbbbbbbbbbbbbbbbbbbbbbbbbbbbbbaa",
"bbbbbbbbbbbbbbbbbbbbbbbbbbbbbbaa",
"bbbbbbbbbbbbbbbbbbbbbbbbbbbbbbaa",
"bbbbbbbbbbbbbbbbbbbbbbbbbbbbbbaa",
"bbbbbbbbbbbbbbbbbbbbbbbbbbbbbbaa",
"bbbbbbbbbbbbbbbbbbbbbbbbbbbbbbaa",
"bbbbbbbbbbb....bbbbbbbbbbbbbbbaa",
"bbbbbbbbbb.bbbb.bbbbbbbbbbbbbbaa",
"bbbbbbbbb.bb#bbb.bbbbbbbbbbbbbaa",
"bbbbbbbbb.b#bbbb.bbbbbbbbbbbbbaa",
"bbbbbbbbb.bbbbbb.bbbbbbbbbbbbbaa",
"bbbbbbbbb.bbbbbb.bbbbbbbbbbbbbaa",
"bbbbbbbbbb.bbbb..bbbbbbbbbbbbbaa",
"bbbbbbbbbbb.......bbbbbbbbbbbbaa",
"bbbbbbbbbbbbbbbb...bbbbbbbbbbbaa",
"bbbbbbbbbbbbbbbbb...bbbbbbbbbbaa",
"bbbbbbbbbbbbbbbbbb...bbbbbbbbbaa",
"bbbbbbbb.....bbbbbb..bbbbbbbbbaa",
"bbbbbbbbbbbbbbbbbbbbbbbbbbbbbbaa",
"bbbbbbbbbbbbbbbbbbbbbbbbbbbbbbaa",
"bbbbbbbbbbbbbbbbbbbbbbbbbbbbbbaa",
"bbbbbbbbbbbbbbbbbbbbbbbbbbbbbbaa",
"bbbbbbbbbbbbbbbbbbbbbbbbbbbbbbaa",
"bbbbbbbbbbbbbbbbbbbbbbbbbbbbbbaa",
"bbbbbbbbbbbbbbbbbbbbbbbbbbbbbbaa",
"bbbbbbbbbbbbbbbbbbbbbbbbbbbbbbaa",
"bbbbbbbbbbbbbbbbbbbbbbbbbbbbbbaa",
"bbbbbbbbbbbbbbbbbbbbbbbbbbbbbbaa",
"bbbbbbbbbbbbbbbbbbbbbbbbbbbbbbaa",
"bbbbbbbbbbbbbbbbbbbbbbbbbbbbbbaa",
"bbbbbbbbbbbbbbbbbbbbbbbbbbbbbbaa",
"bbbbbbbbbbbbbbbbbbbbbbbbbbbbbbaa",
"bbbbbbbbbbbbbbbbbbbbbbbbbbbbbbaa",
"bbbbbbbbbbb....bbbbbbbbbbbbbbbaa",
"bbbbbbbbbb.bbbb.bbbbbbbbbbbbbbaa",
"bbbbbbbbb.bb#bbb.bbbbbbbbbbbbbaa",
"bbbbbbbbb.b#bbbb.bbbbbbbbbbbbbaa",
"bbbbbbbbb.bbbbbb.bbbbbbbbbbbbbaa",
"bbbbbbbbb.bbbbbb.bbbbbbbbbbbbbaa",
"bbbbbbbbbb.bbbb..bbbbbbbbbbbbbaa",
"bbbbbbbbbbb.......bbbbbbbbbbbbaa",
"bbbbbbbbbbbbbbbb...bbbbbbbbbbbaa",
"bbbbbbbbbb.bbbbbb...bbbbbbbbbbaa",
"bbbbbbbbbb.bbbbbbb...bbbbbbbbbaa",
"bbbbbbbb.....bbbbbb..bbbbbbbbbaa",
"bbbbbbbbbb.bbbbbbbbbbbbbbbbbbbaa",
"bbbbbbbbbb.bbbbbbbbbbbbbbbbbbbaa",
"bbbbbbbbbbbbbbbbbbbbbbbbbbbbbbaa",
"bbbbbbbbbbbbbbbbbbbbbbbbbbbbbbaa",
"bbbbbbbbbbbbbbbbbbbbbbbbbbbbbbaa",
"bbbbbbbbbbbbbbbbbbbbbbbbbbbbbbaa",
"bbbbbbbbbbbbbbbbbbbbbbbbbbbbbbaa",
"bbbbbbbbbbbbbbbbbbbbbbbbbbbbbbaa",
"bbbbbbbbbbbbbbbbbbbbbbbbbbbbbbaa",
"bbbbbbbbbbbbbbbbbbbbbbbbbbbbbbaa",
"bbbbbbbbbbbbbbbbbbbbbbbbbbbbbbaa",
"bbbbbbbbbbbbbbbbbbbbbbbbbbbbbbaa",
"bbbbbbbbbbbbbbbbbbbbbbbbbbbbbbaa",
"bbbbbbbbbbbbbbbbbbbbbbbbbbbbbbaa",
"bbbbbbbb......bbbbbbbbbbbbbbbbaa",
"bbbbbbbb..ffffbbbbbbbbbbbbbbbbaa",
"bbbbbbbb...fbbbbbbbbbbbbbbbbbbaa",
"bbbbbbbb.b..fbbbbbbbbbbbbbbbbbaa",
"bbbbbbbb.bb..fbbbbbbbbbbbbbbbbaa",
"bbbbbbbb.bbb..fbbbbbbbbbbbbbbbaa",
"bbbbbbbbbbbbb..fbbbbbbbbbbbbbbaa",
"bbbbbbbbbbbbbb..fbbbbbbbbbbbbbaa",
"bbbbbbbbbbbbbbb..fbbbbbbbbbbbbaa",
"bbbbbbbbbbbbbbbb..fbb.fbbbbbbbaa",
"bbbbbbbbbbbbbbbbb..fb.fbbbbbbbaa",
"bbbbbbbbbbbbbbbbbb..f.fbbbbbbbaa",
"bbbbbbbbbbbbbbbbbbb...fbbbbbbbaa",
"bbbbbbbbbbbbbbbbb.....fbbbbbbbaa",
"bbbbbbbbbbbbbbbbbbbbbbfbbbbbbbaa",
"bbbbbbbbbbbbbbbbbbbbbbbbbbbbbbaa",
"bbbbbbbbbbbbbbbbbbbbbbbbbbbbbbaa",
"bbbbbbbbbbbbbbbbbbbbbbbbbbbbbbaa",
"bbbbbbbbbbbbbbbbbbbbbbbbbbbbbbaa",
"bbbbbbbbbbbbbbbbbbbbbbbbbbbbbbaa",
"bbbbbbbbbbbbbbbbbbbbbbbbbbbbbbaa",
"bbbbbbbbbbbbbbbbbbbbbbbbbbbbbbaa",
"bbbbbbbbbbbbbbbbbbbbbbbbbbbbbbaa",
"bbbbbbbbbbbbbbbbbbbbbbbbbbbbbbaa",
"bbbbbbbbbbbbbbbbbbbbbbbbbbbbbbaa",
"bbbbbbbbbbbbbbbbbbbbbbbbbbbbbbaa",
"bbbbbbbbbbbbbbbbbbbbbbbbbbbbbbaa",
"bbbbbbbbbbbbbbbbbbbbbbbbbbbbbbaa",
"bbbbbbbbbbbbbbbbbbbbbbbbbbbbbbaa",
"bbbbbbbbbbbbbbbbbbbbbbbbbbbbbbaa",
"bbbbbbbbbbbbbbbbbbbbbbbbbbbbbbaa",
"bbbbbbbbbbbbbbbbbbbbbbbbbbbbbbaa",
"bbbbbbbbbbbbbbbbbbbbbbbbbbbbbbaa",
"bbbbbbbbbbbbbbbbbbbbbbbbbbbbbbaa",
"bbbbbbbbbbbbbbbbbbbbbbbbbbbbbbaa",
"bbbbbbbbbbbbbbbbbbbbbbbbbbbbbbaa",
"bbbbbbb.bbbbbbbbggggghbbbbbbbbaa",
"bbbbbbb..bbbbbbggbbhgghbbbbbbbaa",
"bbbbbbb...bbbbgghbbbgggbbbbbbbaa",
"bbbbbbb....bbbgghbbbgggbbbbbbbaa",
"bbbbbbb.....bbhggbbhgghbbbbbbbaa",
"bbbbbbb......bbbbbbgghbbbbbbbbaa",
"bbbbbbb.......bbbbggbbbbbbbbbbaa",
"bbbbbbb........bbgghbbbbbbbbbbaa",
"bbbbbbb.....bbbbbgghbbbbbbbbbbaa",
"bbbbbbb..b..bbbbbbbbbbbbbbbbbbaa",
"bbbbbbb.bbb..bbbbgggbbbbbbbbbbaa",
"bbbbbbbbbbb..bbbbgggbbbbbbbbbbaa",
"bbbbbbbbbbbb..bbbbbbbbbbbbbbbbaa",
"bbbbbbbbbbbb..bbbbbbbbbbbbbbbbaa",
"bbbbbbbbbbbbbbbbbbbbbbbbbbbbbbaa",
"bbbbbbbbbbbbbbbbbbbbbbbbbbbbbbaa",
"bbbbbbbbbbbbbbbbbbbbbbbbbbbbbbaa",
"bbbbbbbbbbbbbbbbbbbbbbbbbbbbbbaa",
"bbbbbbbbbbbbbbbbbbbbbbbbbbbbbbaa",
"bbbbbbbbbbbbbbbbbbbbbbbbbbbbbbaa",
"bbbbbbbbbbbbbbbbbbbbbbbbbbbbbbaa",
"bbbbbbbbbbbbbbbbbbbbbbbbbbbbbbaa",
"aaaaaaaaaaaaaaaaaaaaaaaaaaaaaaaa"
};
SIMPLE  =                    T                                                  BITPIX  =                    8                                                  NAXIS   =                    2                                                  NAXIS1  =                   32                                                  NAXIS2  =                  196                                                  HISTORY Written by XV 3.10a                                                     END                                                                                                                                                                                                                                                                                                                                                                                                                                                                                                                                                                                                                                                                                                                                                                                                                                                                                                                                                                                                                                                                                                                                                                                                                                                                                                                                                                                                                                                                                                                                                                                                                                                                                                                                                                                                                                                                                                                                                                                                                                                                                                                                                                                                                                                                                                                                                                                                                                                                                             ÃÃÃÃÃÃÃÃÃÃÃÃÃÃÃÃÃÃÃÃÃÃÃÃÃÃÃÃÃÃÃÃ××××××××××××××××××××××××××××××ÃÃ××××××××××××××××××××××××××××××ÃÃ××××××××××××××××××××××××××××××ÃÃ××××××××××××××××××××××××××××××ÃÃ××××××××××××××××××××××××××××××ÃÃ××××××××××××××××××××××××××××××ÃÃ××××××××××××××××××××××××××××××ÃÃ××××××××××××××××××××××××××××××ÃÃ××××××××××××  ××××××××××××××××ÃÃ××××××××××××  ××××××××××××××××ÃÃ×××××××××××  ××××××××××××××ÃÃ××××××× ×××  ××××××××××××××ÃÃ×××××××  ×  ××××××××××××××××××ÃÃ×××××××     ×××××„××××××××××ÃÃ×××××××        ××„××××××××××ÃÃ×××××××       ××××××××××××××ÃÃ×××××××      ××××××„××××××××ÃÃ×××××××     ××„××„„×××××××ÃÃ×××××××    ×××„××××××××××ÃÃ×××××××   ××××„××××××××××ÃÃ×××××××  ××××××××„„×××××××ÃÃ××××××× ××××××××„××××××××ÃÃ××××××××××××××××××××××××××××××ÃÃ××××××××××××××××××××××××××××××ÃÃ××××××××××××××××××××××××××××××ÃÃ××××××××××××××××××××××××××××××ÃÃ××××××××××××××××××××××××××××××ÃÃ××××××××××××××××××××××××××××××ÃÃ××××××××××××××××××××××××××××××ÃÃ××××××××××××××××××××××××××××××ÃÃ××××××××××××××××××××××××××××××ÃÃ××××××××××××××××××××××××××××××ÃÃ××××××××××××××××××××××××××××××ÃÃ××××××××××××××××××××××××××××××ÃÃ××××××××××××××××××××××××××××××ÃÃ××××××××××××××××××××××××××××××ÃÃ××××××××××××××××××××××××××××××ÃÃ××××××××××××××××××××××××××××××ÃÃ××××××××××××××××××××××××××××××ÃÃ××××××××××××××××××××××××××××××ÃÃ××××××××××××××××××××××××××××××ÃÃ××××××××××××××××××××××××××××××ÃÃ××××××××××××××××××××××××××××××ÃÃ××××××××××××××××××××××{×××××××ÃÃ×××××××××××××××××     {×××××××ÃÃ×××××××××××××××××××   {×××××××ÃÃ××××××××××××××××××  { {×××××××ÃÃ×××××××××××××××××  {× {×××××××ÃÃ××××××××××××××××  {×× {×××××××ÃÃ×××××××××××××××  {××××××××××××ÃÃ××××××××××××××  {×××××××××××××ÃÃ×××××××××××××  {××××××××××××××ÃÃ×××××××× ×××  {×××××××××××××××ÃÃ×××××××× ××  {××××××××××××××××ÃÃ×××××××× ×  {×××××××××××××××××ÃÃ××××××××   {××××××××××××××××××ÃÃ××××××××  {{{{××××××××××××××××ÃÃ××××××××      ××××××××××××××××ÃÃ××××××××××××××××××××××××××××××ÃÃ××××××××××××××××××××××××××××××ÃÃ××××××××××××××××××××××××××××××ÃÃ××××××××××××××××××××××××××××××ÃÃ××××××××××××××××××××××××××××××ÃÃ××××××××××××××××××××××××××××××ÃÃ××××××××××××××××××××××××××××××ÃÃ××××××××××××××××××××××××××××××ÃÃ××××××××××××××××××××××××××××××ÃÃ××××××××××××××××××××××××××××××ÃÃ××××××××××××××××××××××××××××××ÃÃ××××××××××××××××××××××××××××××ÃÃ×××××××××× ×××××××××××××××××××ÃÃ×××××××××× ×××××××××××××××××××ÃÃ××××××××     ××××××  ×××××××××ÃÃ×××××××××× ×××××××   ×××××××××ÃÃ×××××××××× ××××××   ××××××××××ÃÃ××××××××××××××××   ×××××××××××ÃÃ×××××××××××       ××××××××××××ÃÃ×××××××××× ××××  ×××××××××××××ÃÃ××××××××× ×××××× ×××××××××××××ÃÃ××××××××× ×××××× ×××××××××××××ÃÃ××××××××× ×ÿ×××× ×××××××××××××ÃÃ××××××××× ××ÿ××× ×××××××××××××ÃÃ×××××××××× ×××× ××××××××××××××ÃÃ×××××××××××    ×××××××××××××××ÃÃ××××××××××××××××××××××××××××××ÃÃ××××××××××××××××××××××××××××××ÃÃ××××××××××××××××××××××××××××××ÃÃ××××××××××××××××××××××××××××××ÃÃ××××××××××××××××××××××××××××××ÃÃ××××××××××××××××××××××××××××××ÃÃ××××××××××××××××××××××××××××××ÃÃ××××××××××××××××××××××××××××××ÃÃ××××××××××××××××××××××××××××××ÃÃ××××××××××××××××××××××××××××××ÃÃ××××××××××××××××××××××××××××××ÃÃ××××××××××××××××××××××××××××××ÃÃ××××××××××××××××××××××××××××××ÃÃ××××××××××××××××××××××××××××××ÃÃ××××××××××××××××××××××××××××××ÃÃ××××××××     ××××××  ×××××××××ÃÃ××××××××××××××××××   ×××××××××ÃÃ×××××××××××××××××   ××××××××××ÃÃ××××××××××××××××   ×××××××××××ÃÃ×××××××××××       ××××××××××××ÃÃ×××××××××× ××××  ×××××××××××××ÃÃ××××××××× ×××××× ×××××××××××××ÃÃ××××××××× ×××××× ×××××××××××××ÃÃ××××××××× ×ÿ×××× ×××××××××××××ÃÃ××××××××× ××ÿ××× ×××××××××××××ÃÃ×××××××××× ×××× ××××××××××××××ÃÃ×××××××××××    ×××××××××××××××ÃÃ××××××××××××××××××××××××××××××ÃÃ××××××××××××××××××××××××××××××ÃÃ××××××××××××××××××××××××××××××ÃÃ××××××××××××××××××××××××××××××ÃÃ××××××××××××××××××××××××××××××ÃÃ××××××××××××××××××××××××××××××ÃÃ××××××××××××××××××××××××××××××ÃÃ××××××××××××××××××××××××××××××ÃÃ××××××××××××××××××××××××××××××ÃÃ××××××××××××××××××××××××××××××ÃÃ××××××××××××××××××××××××××××××ÃÃ××××××××××××××××××××××××××××××ÃÃ××××××××××××××××××××××××××××××ÃÃ××××××××××××××××××××××××××××××ÃÃ××××××××××××××××××××××××××××××ÃÃ××××××××××××××××××××××××××××××ÃÃ××××××××××××××××××××××××××××××ÃÃ××××××××××××××××××××××××××××××ÃÃ××××××××××××××××××××××××××××××ÃÃ××××××××××××××××××××××××××××××ÃÃ××××××××××××××××××××××××××××××ÃÃ××××××××××××××××××××××××××××××ÃÃ×××××××           ××××××××××××ÃÃ×××××××  mmmmmmmmm ×××××××××××ÃÃ×××××××   ×m×mmmmmm ××××××××××ÃÃ××××××× ÿ× ×m×mmmmmm ×××××××××ÃÃ××××××× ×ÿ× mm×mmmmmm ××××××××ÃÃ××××××× ÿ×ÿ× ×m×m×mmmm ×××××××ÃÃ××××××× ×ÿ×ÿ× ×m×m×m×mm ××××××ÃÃ××××××× ÿ×ÿ×ÿ×          ××××××ÃÃ××××××× ×ÿ×ÿ×ÿ×ÿ× ××××××××××××ÃÃ××××××× ÿ×ÿ×ÿ×ÿ×ÿ ××××××××××××ÃÃ××××××× ×ÿ×       ××××××××××××ÃÃ×××××××    ×××××××××××××××××××ÃÃ×××××××××××××××××××    ×××××××ÃÃ××××××××××××××××××××   ×××××××ÃÃ××××××××××××××××××××   ×××××××ÃÃ×××××××××××××××××××  × ×××××××ÃÃ××××××××××××××××    ××××××××××ÃÃ××××××××××××××××××××××××××××××ÃÃ××××××××××××××××××××××××××××××ÃÃ××××××××××××××××××××××××××××××ÃÃ××××××××××××××××××××××××××××××ÃÃ××××××××××××××××××××××××××××××ÃÃ××××××××××××××××××××××××××××××ÃÃ××××××××××××××××××××××××××××××ÃÃ××××××××××××××××××××××××××××××ÃÃ××××××××××××××××××××××××××××××ÃÃ××××××××××××××××××××××××××××××ÃÃ×××××××××            ×××××××××ÃÃ××××××××× ÿÿÿÿÿÿÿÿÿÿ ×××××××××ÃÃ××××××××× ÿÿÿÿÿÿÿÿÿÿ ×××××××××ÃÃ××××××××× ÿÿÿÿÿÿÿÿÿÿ ×××××××××ÃÃ××××××××× ÿÿÿÿÿÿÿÿÿÿ ×××××××××ÃÃ××××××××× ÿÿÿÿÿÿÿÿÿÿ ×××××××××ÃÃ××××××××× ÿÿÿÿÿÿÿÿÿÿ ×××××××××ÃÃ××××××××× ÿÿÿÿÿÿÿÿÿÿ ×××××××××ÃÃ××××××××× ÿÿÿÿÿÿÿÿÿÿ ×××××××××ÃÃ××××××××× ÿÿÿÿÿÿÿÿÿß ×××××××××ÃÃ××××××××× ÿÿÿÿÿÿÿ××× ×××××××××ÃÃ××××××××× ÿÿÿÿÿÿ×    ×××××××××ÃÃ××××××××× ÿÿÿÿÿÿ×ÿß ××××××××××ÃÃ××××××××× ÿÿÿÿÿÿ×ß ×××××××××××ÃÃ××××××××× ÿÿÿÿÿÿß ××××××××××××ÃÃ×××××××××        ×××××××××××××ÃÃ××××××××××××××××××××××××××××××ÃÃ××××××××××××××××××××××××××××××ÃÃ××××××××××××××××××××××××××××××ÃÃ××××××××××××××××××××××××××××××ÃÃ××××××××××××××××××××××××××××××ÃÃ××××××××××××××××××××××××××××××ÃÃ××××××××××××××××××××××××××××××ÃÃ××××××××××××××××××××××××××××××ÃÃ××××××××××××××××××××××××××××××ÃÃ×××iiiiiiiiiiiiiiiiiiiiii×××××ÃÃ×××ÿiiiiiiiiiiiiiiiiiiiii×××××ÃÃ×××ÿÿÿÿÿÿÿÿÿÿÿÿÿÿÿÿÿÿÿÿii×××××ÃÃ×××ÿÿÿÿÿÿÿÿÿÿÿÿÿÿÿÿÿÿÿÿÿi×××××ÃÃ×××iiiiiiiiiiiiiiiiiiiiii×××××ÃÃ×××ÿiiiiiiiiiiiiiiiiiiiii×××××ÃÃ×××ÿÿÿÿÿÿÿÿÿÿÿÿÿÿÿÿÿÿÿÿii×××××ÃÃÿÿÿÿÿÿÿÿÿÿÿÿÿÿÿÿÿÿÿÿÿÿÿÿÿÿ××××ÃÃiiiiiiiiiiiiiiiiiiiiiiiiiÿ××××ÃÃ××××××××××××××××××××××××××××××ÃÃ                                                                                                                                                                                                                                                                                                                                                                                                                                                                                                                                                                                                                                                                                                                                                                                                                                                                                                                                                                                                                                                                                                                                                                                                                                                                                                                                                                                                                                                                                                                                                                                                                                                                                                                                                                                                                                                                                                                                                                                                                                                                                                                                                                                                                                                                                                                                                                                                                                                                