/* XPM */
static char *toolbar2[] = {
/* width height num_colors chars_per_pixel */
"    33   219        8            1",
/* colors */
". c #000000",
"# c #ffffff",
"a c #c3c3c3",
"b c #828282",
"c c #d7d7d7",
"d c #696969",
"e c #797d79",
"f c #cfcfcf",
/* pixels */
"ccc####################ddcccccaaa",
"ccc#dddddddddddddddddddddcccccaaa",
"cccddddddddddddddddddddddcccccaaa",
"ccc#####################dcccccaaa",
"ccc####################ddcccccaaa",
"ccc#dddddddddddddddddddddcccccaaa",
"cccddddddddddddddddddddddcccccaaa",
"ccccccccccccccccccccccccccccccaaa",
"ccccccccccccccccccccccccccccccaaa",
"ccccccccccccccccccccccccccccccaaa",
"ccccccccccccccccccccccccccccccaaa",
"ccccccccccccccccccccccccccccccaaa",
"ccccccccccccccccccccccccccccccaaa",
"ccccccccccccccccccccccccccccccaaa",
"ccccccccccccccccccccccccccccccaaa",
"ccccccccccccccccccccccccccccccaaa",
"ccccccccccccccccccccccccccccccaaa",
"ccccccccccccccccccccccccccccccaaa",
"ccccccccbcccccbcccccccccccccccaaa",
"ccccccccb#cccbb#ccccccccccccccaaa",
"ccccccccb#ccbbb#ccccccccccccccaaa",
"ccccccccb#cbbbbbbbbbbbccccccccaaa",
"ccccccccb#bbb#bbbbbbbb#cccccccaaa",
"ccccccccbbbb##c######b#cccccccaaa",
"ccccccccb#bb#ccccccccb#cccccccaaa",
"ccccccccb#bbbcbbbbbbbb#cccccccaaa",
"ccccccccb#cbbbbbbbbbbb#cccccccaaa",
"ccccccccb#ccbbbb#######cccccccaaa",
"ccccccccb#cccbbb#cccccccccccccaaa",
"ccccccccc#ccccbb#cccccccccccccaaa",
"cccccccccccccccb#cccccccccccccaaa",
"cccccccccccccccc#cccccccccccccaaa",
"ccccccccccccccccccccccccccccccaaa",
"ccccccccccccccccccccccccccccccaaa",
"ccccccccccccccccccccccccccccccaaa",
"ccccccccccccccccccccccccccccccaaa",
"ccccccccccccccccccccccccccccccaaa",
"ccccccccccccccccccccccccccccccaaa",
"ccccccccccccccccccccccccccccccaaa",
"ccccccccccccccccccccccccccccccaaa",
"ccccccccccccccccccccccccccccccaaa",
"ccccccccccccccccccccccccccccccaaa",
"ccccccccccccccccccccccccccccccaaa",
"ccccccccccccccccccccccccccccccaaa",
"ccccccccccccccccccccccccccccccaaa",
"cccccccccccccccc.ccccc.cccccccaaa",
"cccccccccccccccc..cccc.cccccccaaa",
"cccccccccccccccc.#.ccc.cccccccaaa",
"ccccccccc........##.cc.cccccccaaa",
"ccccccccc.#######c##.c.cccccccaaa",
"ccccccccc.ccccccccc##..cccccccaaa",
"ccccccccc.ccccccccc#.c.cccccccaaa",
"ccccccccc........c#.bc.cccccccaaa",
"cccccccccbbbbbbb.#.bcc.cccccccaaa",
"cccccccccccccccb..bccc.cccccccaaa",
"cccccccccccccccb.bcccc.cccccccaaa",
"cccccccccccccccbbcccccccccccccaaa",
"cccccccccccccccbccccccccccccccaaa",
"ccccccccccccccccccccccccccccccaaa",
"ccccccccccccccccccccccccccccccaaa",
"ccccccccccccccccccccccccccccccaaa",
"ccccccccccccccccccccccccccccccaaa",
"ccccccccccccccccccccccccccccccaaa",
"ccccccccccccccccccccccccccccccaaa",
"ccccccccccccccccccccccccccccccaaa",
"ccccccccccccccccccccccccccccccaaa",
"ccccccccccccccccccccccccccccccaaa",
"ccccccccccccccccccccccccccccccaaa",
"ccccccccccccccccccccccccccccccaaa",
"ccccccccccccccccccccccccccccccaaa",
"ccccccccccccccccccccccccccccccaaa",
"ccccccccccccccccccccccccccccccaaa",
"ccccccccccccccccccccccccccccccaaa",
"ccccccccccccccccccccccccccccccaaa",
"ccccccccccccccccccccccccccccccaaa",
"ccccccccccccccccccccccccccccccaaa",
"ccccccccccccccccccccccccccccccaaa",
"ccccccccccccccccccccccccccccccaaa",
"ccccccccccccccccccccccccccccccaaa",
"ccccccccccccccccccccccccccccccaaa",
"ccccccccccccccccccccccccccccccaaa",
"ccccccccccccccbcccccccccccccccaaa",
"cccccccccccccbb#ccccccccccccccaaa",
"ccccccccccccbbb#ccccccccccccccaaa",
"cccccccccccbbbbbbbbbbbccccccccaaa",
"ccccccccccbbb#bbbbbbbb#cccccccaaa",
"cccccccccbbb##c######b#cccccccaaa",
"ccccccccccbb#ccccccccb#cccccccaaa",
"ccccccccccbbbcbbbbbbbb#cccccccaaa",
"cccccccccccbbbbbbbbbbb#cccccccaaa",
"ccccccccccccbbbb#######cccccccaaa",
"cccccccccccccbbb#cccccccccccccaaa",
"ccccccccccccccbb#cccccccccccccaaa",
"cccccccccccccccb#cccccccccccccaaa",
"cccccccccccccccc#cccccccccccccaaa",
"ccccccccccccccccccccccccccccccaaa",
"ccccccccccccccccccccccccccccccaaa",
"ccccccccccccccccccccccccccccccaaa",
"ccccccccccccccccccccccccccccccaaa",
"ccccccccccccccccccccccccccccccaaa",
"ccccccccccccccccccccccccccccccaaa",
"ccccccccccccccccccccccccccccccaaa",
"ccccccccccccccccccccccccccccccaaa",
"ccccccccccccccccccccccccccccccaaa",
"ccccccccccccccccccccccccccccccaaa",
"ccccccccccccccccccccccccccccccaaa",
"ccccccccccccccccccccccccccccccaaa",
"ccccccccccccccccccccccccccccccaaa",
"cccccccccccccccc.cccccccccccccaaa",
"cccccccccccccccc..ccccccccccccaaa",
"cccccccccccccccc.#.cccccccccccaaa",
"ccccccccc........##.ccccccccccaaa",
"ccccccccc.#######c##.cccccccccaaa",
"ccccccccc.ccccccccc##.ccccccccaaa",
"ccccccccc.ccccccccc#.cccccccccaaa",
"ccccccccc........c#.bcccccccccaaa",
"cccccccccbbbbbbb.#.bccccccccccaaa",
"cccccccccccccccb..bcccccccccccaaa",
"cccccccccccccccb.bccccccccccccaaa",
"cccccccccccccccbbcccccccccccccaaa",
"cccccccccccccccbccccccccccccccaaa",
"ccccccccccccccccccccccccccccccaaa",
"ccccccccccccccccccccccccccccccaaa",
"ccccccccccccccccccccccccccccccaaa",
"ccccccccccccccccccccccccccccccaaa",
"ccccccccccccccccccccccccccccccaaa",
"ccccccccccccccccccccccccccccccaaa",
"ccccccccccccccccccccccccccccccaaa",
"ccccccccccccccccccccccccccccccaaa",
"ccccccccccccccccccccccccccccccaaa",
"ccccccccccccccccccccccccccccccaaa",
"ccccccccccccccccccccccccccccccaaa",
"ccccccccccccccccccccccccccccccaaa",
"ccccccccccccccccccccccccccccccaaa",
"ccccccccccccccccccccccccccccccaaa",
"ccccccccccccccccccccccccccccccaaa",
"ccccccccccccccccccccccccccccccaaa",
"ccccccccccccccccccccccccccccccaaa",
"ccccccccccccccccccccccccccccccaaa",
"cccc##...#fffffffffff#...#ccccaaa",
"cccc##.f.#############.f.#ccccaaa",
"cccc##...................#ccccaaa",
"cccc##...................#ccccaaa",
"cccc##.f.#############.f.#ccccaaa",
"cccc##...#fffff...fff#...#ccccaaa",
"cccc##...#ffff....fff#...#ccccaaa",
"cccc##.f.#fff..f..fff#.f.#ccccaaa",
"cccc##...#fff.ff..fff#...#ccccaaa",
"cccc##...#ffffff..fff#...#ccccaaa",
"cccc##.f.#ffff.....ff#.f.#ccccaaa",
"cccc##...#ffff.....ff#...#ccccaaa",
"cccc##...#############...#ccccaaa",
"cccc##.f...............f.#ccccaaa",
"cccc##...................#ccccaaa",
"cccc##...#############...#ccccaaa",
"cccc##.f.#ffffff..fff#.f.#ccccaaa",
"cccc##...#fffff....ff#...#ccccaaa",
"cccc##...#ffff..ff.ff#...#ccccaaa",
"cccc##.f.#ffffffff.ff#.f.#ccccaaa",
"cccc##...#ffffff...ff#...#ccccaaa",
"cccc##...#ffff....fff#...#ccccaaa",
"ccccccccccccccccccccccccccccccaaa",
"ccccccccccccccccccccccccccccccaaa",
"ccccccccccccccccccccccccccccccaaa",
"ccccccccccccccccccccccccccccccaaa",
"ccccccccccccccccccccccccccccccaaa",
"ccccffffffffffffffffffffffccccaaa",
"ccccfffffffffff...ffffffffccccaaa",
"ccccffffffffff..ee.fffffffccccaaa",
"ccccffffffff...eee..ffffffccccaaa",
"ccccfffffff..eeeeee..fffffccccaaa",
"ccccffffff..eeeeeeee..ffffccccaaa",
"ccccffff...ee##ee##ee..fffccccaaa",
"ccccfff..eeee##ee##eee..ffccccaaa",
"ccccff...eeeeeeeeeeee....fccccaaa",
"ccccff....eeeeeeeeee...e.fccccaaa",
"ccccff.ee..eee##eeee..ee.fccccaaa",
"ccccff.eee..ee##eee..eee.fccccaaa",
"ccccff.eeee..eeee...eeee.fccccaaa",
"ccccff.eeeee..ee..eee##e.fccccaaa",
"ccccff.eee##e....eeee##e.fccccaaa",
"ccccff..ee##ee..eeeeeeee.fccccaaa",
"ccccfff..eeeee.ee##eeee.ffccccaaa",
"ccccfffff.eeee.ee##ee.ffffccccaaa",
"ccccffffff..ee.eeeee.fffffccccaaa",
"ccccfffffff..e.eee..ffffffccccaaa",
"ccccffffffff...e..ffffffffccccaaa",
"ccccfffffffff....fffffffffccccaaa",
"ccccccccccccccccccccccccccccccaaa",
"ccccccccccccccccccccccccccccccaaa",
"ccccccccccccccccccccccccccccccaaa",
"ccccccccccccccccccccccccccccccaaa",
"ccccccccccccccccccccccccccccccaaa",
"ccccccccccccccccccccccccccccccaaa",
"ccccccccccccccccccccccccccccccaaa",
"ccccccccccccccccccccccccccccccaaa",
"cccccccccccbbbbbbbccccccccccccaaa",
"ccccccccccbbbbbbbbbcccccccccccaaa",
"cccccccccbbbbbbbbbbbccccccccccaaa",
"ccccccccbbbbbbbbbbbbbcccccccccaaa",
"cccccccbbbbbbbbbbbbbbbccccccccaaa",
"cccccccbbbbbbbbbbbbbbb#cccccccaaa",
"cccccccbbbbbbbbbbbbbbb#cccccccaaa",
"cccccccbbbbbbbbbbbbbbb#cccccccaaa",
"cccccccbbbbbbbbbbbbbbb#cccccccaaa",
"cccccccbbbbbbbbbbbbbbb#cccccccaaa",
"cccccccbbbbbbbbbbbbbbb#cccccccaaa",
"ccccccccbbbbbbbbbbbbb##cccccccaaa",
"cccccccccbbbbbbbbbbb##ccccccccaaa",
"ccccccccccbbbbbbbbb##cccccccccaaa",
"cccccccccccbbbbbbb##ccccccccccaaa",
"cccccccccccc#######cccccccccccaaa",
"ccccccccccccccccccccccccccccccaaa",
"ccccccccccccccccccccccccccccccaaa",
"ccccccccccccccccccccccccccccccaaa",
"ccccccccccccccccccccccccccccccaaa",
"ccccccccccccccccccccccccccccccaaa",
"ccccccccccccccccccccccccccccccaaa",
"ccccccccccccccccccccccccccccccaaa"
};
SIMPLE  =                    T                                                  BITPIX  =                    8                                                  NAXIS   =                    2                                                  NAXIS1  =                   33                                                  NAXIS2  =                  219                                                  HISTORY Written by XV 3.10a                                                     END                                                                                                                                                                                                                                                                                                                                                                                                                                                                                                                                                                                                                                                                                                                                                                                                                                                                                                                                                                                                                                                                                                                                                                                                                                                                                                                                                                                                                                                                                                                                                                                                                                                                                                                                                                                                                                                                                                                                                                                                                                                                                                                                                                                                                                                                                                                                                                                                                                                                                             ввввввввввввввввввввввввввввввцццввввввввввввввввввввввввввввввцццввввввввввввввввввввввввввввввцццввввввввввввввввввввввввввввввцццввввввввввввввввввввввввввввввцццввввввввввввввввввввввввввввввцццввввввввввввввввввввввввввввввцццввввввввввввЪЪЪЪЪЪЪвввввввввввцццввввввввввв┌┌┌┌┌┌┌ЪЪввввввввввцццвввввввввв┌┌┌┌┌┌┌┌┌ЪЪвввввввввцццввввввввв┌┌┌┌┌┌┌┌┌┌┌ЪЪввввввввцццвввввввв┌┌┌┌┌┌┌┌┌┌┌┌┌ЪЪвввввввцццввввввв┌┌┌┌┌┌┌┌┌┌┌┌┌┌┌Ъвввввввцццввввввв┌┌┌┌┌┌┌┌┌┌┌┌┌┌┌Ъвввввввцццввввввв┌┌┌┌┌┌┌┌┌┌┌┌┌┌┌Ъвввввввцццввввввв┌┌┌┌┌┌┌┌┌┌┌┌┌┌┌Ъвввввввцццввввввв┌┌┌┌┌┌┌┌┌┌┌┌┌┌┌Ъвввввввцццввввввв┌┌┌┌┌┌┌┌┌┌┌┌┌┌┌Ъвввввввцццввввввв┌┌┌┌┌┌┌┌┌┌┌┌┌┌┌ввввввввцццвввввввв┌┌┌┌┌┌┌┌┌┌┌┌┌вввввввввцццввввввввв┌┌┌┌┌┌┌┌┌┌┌ввввввввввцццвввввввввв┌┌┌┌┌┌┌┌┌вввввввввввцццввввввввввв┌┌┌┌┌┌┌ввввввввввввцццввввввввввввввввввввввввввввввцццввввввввввввввввввввввввввввввцццввввввввввввввввввввввввввввввцццввввввввввввввввввввввввввввввцццввввввввввввввввввввввввввввввцццввввввввввввввввввввввввввввввцццввввввввввввввввввввввввввввввцццввввввввввввввввввввввввввввввцццввввооооооооо    оооооооооввввцццввввоооооооо   {  ооооооооввввцццввввооооооо  { {{{  ооооооввввцццввввоооооо  {{ {{{{{ оооооввввцццввввооооо {{{{ {{ЪЪ{{ ооооввввцццввввооо  {{{{{ {{ЪЪ{{{{ ооввввцццввввоо  {{ЪЪ{{  {{{{{{{{ оввввцццввввоо {{{ЪЪ{    {{{{ЪЪ{ оввввцццввввоо {{{{{  {{  {{{ЪЪ{ оввввцццввввоо {{{{  {{{{   {{{{ оввввцццввввоо {{{  {{ЪЪ{{{  {{{ оввввцццввввоо {{  {{{ЪЪ{{{{  {{ оввввцццввввоо    {{{{{{{{{{   { оввввцццввввоо   {{{{{{{{{{{{    оввввцццввввооо  {{{{ЪЪ{{ЪЪ{{{  ооввввцццввввоооо   {{ЪЪ{{ЪЪ{{  оооввввцццввввоооооо  {{{{{{{{  ооооввввцццввввооооооо  {{{{{{  оооооввввцццввввоооооооо   {{{  ооооооввввцццввввоооооооооо  {{ оооооооввввцццввввооооооооооо   ооооооооввввцццввввооооооооооооооооооооооввввцццввввввввввввввввввввввввввввввцццввввввввввввввввввввввввввввввцццввввввввввввввввввввввввввввввцццввввввввввввввввввввввввввввввцццввввввввввввввввввввввввввввввцццввввЪЪ   Ъоооо    оооЪ   ЪввввцццввввЪЪ   Ъоооооо   ооЪ   ЪввввцццввввЪЪ о Ъоооооооо ооЪ о ЪввввцццввввЪЪ   Ъоооо  оо ооЪ   ЪввввцццввввЪЪ   Ъооооо    ооЪ   ЪввввцццввввЪЪ о Ъоооооо  оооЪ о ЪввввцццввввЪЪ   ЪЪЪЪЪЪЪЪЪЪЪЪЪ   ЪввввцццввввЪЪ                   ЪввввцццввввЪЪ о               о ЪввввцццввввЪЪ   ЪЪЪЪЪЪЪЪЪЪЪЪЪ   ЪввввцццввввЪЪ   Ъоооо     ооЪ   ЪввввцццввввЪЪ о Ъоооо     ооЪ о ЪввввцццввввЪЪ   Ъоооооо  оооЪ   ЪввввцццввввЪЪ   Ъооо оо  оооЪ   ЪввввцццввввЪЪ о Ъооо  о  оооЪ о ЪввввцццввввЪЪ   Ъоооо    оооЪ   ЪввввцццввввЪЪ   Ъооооо   оооЪ   ЪввввцццввввЪЪ о ЪЪЪЪЪЪЪЪЪЪЪЪЪ о ЪввввцццввввЪЪ                   ЪввввцццввввЪЪ                   ЪввввцццввввЪЪ о ЪЪЪЪЪЪЪЪЪЪЪЪЪ о ЪввввцццввввЪЪ   ЪоооооооооооЪ   Ъввввцццввввввввввввввввввввввввввввввцццввввввввввввввввввввввввввввввцццввввввввввввввввввввввввввввввцццввввввввввввввввввввввввввввввцццввввввввввввввввввввввввввввввцццввввввввввввввввввввввввввввввцццввввввввввввввввввввввввввввввцццввввввввввввввввввввввввввввввцццввввввввввввввввввввввввввввввцццввввввввввввввввввввввввввввввцццввввввввввввввввввввввввввввввцццввввввввввввввввввввввввввввввцццввввввввввввввввввввввввввввввцццввввввввввввввввввввввввввввввцццввввввввввввввввввввввввввввввцццввввввввввввввввввввввввввввввцццввввввввввввввввввввввввввввввцццввввввввввввввввввввввввввввввцццввввввввввввввв┌ввввввввввввввцццввввввввввввввв┌┌вввввввввввввцццввввввввввввввв┌ ┌ввввввввввввцццввввввввввввввв┌  ┌вввввввввввцццввввввввв┌┌┌┌┌┌┌ Ъ ┌ввввввввввцццввввввввв        вЪ ┌вввввввввцццввввввввв вввввввввЪ вввввввввцццввввввввв вввввввввЪЪ ввввввввцццввввввввв ЪЪЪЪЪЪЪвЪЪ вввввввввцццввввввввв        ЪЪ ввввввввввцццвввввввввввввввв Ъ вввввввввввцццвввввввввввввввв  ввввввввввввцццвввввввввввввввв вввввввввввввцццввввввввввввввввввввввввввввввцццввввввввввввввввввввввввввввввцццввввввввввввввввввввввввввввввцццввввввввввввввввввввввввввввввцццввввввввввввввввввввввввввввввцццввввввввввввввввввввввввввввввцццввввввввввввввввввввввввввввввцццввввввввввввввввввввввввввввввцццввввввввввввввввввввввввввввввцццввввввввввввввввввввввввввввввцццввввввввввввввввввввввввввввввцццввввввввввввввввввввввввввввввцццввввввввввввввввввввввввввввввцццввввввввввввввввЪвввввввввввввцццввввввввввввввв┌Ъвввввввввввввцццвввввввввввввв┌┌Ъвввввввввввввцццввввввввввввв┌┌┌Ъвввввввввввввцццвввввввввввв┌┌┌┌ЪЪЪЪЪЪЪвввввввцццввввввввввв┌┌┌┌┌┌┌┌┌┌┌Ъвввввввцццвввввввввв┌┌┌в┌┌┌┌┌┌┌┌Ъвввввввцццвввввввввв┌┌Ъвввввввв┌Ъвввввввцццввввввввв┌┌┌ЪЪвЪЪЪЪЪЪ┌Ъвввввввцццвввввввввв┌┌┌Ъ┌┌┌┌┌┌┌┌Ъвввввввцццввввввввввв┌┌┌┌┌┌┌┌┌┌┌ввввввввцццвввввввввввв┌┌┌Ъввввввввввввввцццввввввввввввв┌┌Ъввввввввввввввцццвввввввввввввв┌вввввввввввввввцццввввввввввввввввввввввввввввввцццввввввввввввввввввввввввввввввцццввввввввввввввввввввввввввввввцццввввввввввввввввввввввввввввввцццввввввввввввввввввввввввввввввцццввввввввввввввввввввввввввввввцццввввввввввввввввввввввввввввввцццввввввввввввввввввввввввввввввцццввввввввввввввввввввввввввввввцццввввввввввввввввввввввввввввввцццввввввввввввввввввввввввввввввцццввввввввввввввввввввввввввввввцццввввввввввввввввввввввввввввввцццввввввввввввввввввввввввввввввцццввввввввввввввввввввввввввввввцццввввввввввввввввввввввввввввввцццввввввввввввввввввввввввввввввцццввввввввввввввввввввввввввввввцццввввввввввввввввввввввввввввввцццввввввввввввввввввввввввввввввцццввввввввввввввввввввввввввввввцццввввввввввввввввввввввввввввввцццввввввввввввввввввввввввввввввцццввввввввввввввв┌ввввввввввввввцццввввввввввввввв┌┌вввввввввввввцццввввввввввввввв┌ ┌вввв вввввввцццввввввввввввввв┌  ┌ввв вввввввцццввввввввв┌┌┌┌┌┌┌ Ъ ┌вв вввввввцццввввввввв        вЪ ┌в вввввввцццввввввввв вввввввввЪ в вввввввцццввввввввв вввввввввЪЪ  вввввввцццввввввввв ЪЪЪЪЪЪЪвЪЪ в вввввввцццввввввввв        ЪЪ вв вввввввцццвввввввввввввввв Ъ ввв вввввввцццвввввввввввввввв  вввв вввввввцццвввввввввввввввв ввввв вввввввцццввввввввввввввввввввввввввввввцццввввввввввввввввввввввввввввввцццввввввввввввввввввввввввввввввцццввввввввввввввввввввввввввввввцццввввввввввввввввввввввввввввввцццввввввввввввввввввввввввввввввцццввввввввввввввввввввввввввввввцццввввввввввввввввввввввввввввввцццввввввввввввввввввввввввввввввцццввввввввввввввввввввввввввввввцццввввввввввввввввввввввввввввввцццввввввввввввввввввввввввввввввцццввввввввввввввввввввввввввввввцццввввввввввввввввЪвввввввввввввцццввввввввввввввв┌ЪвввввввввввввцццвввввввввЪвввв┌┌Ъвввввввввввввцццвввввввв┌Ъввв┌┌┌Ъвввввввввввввцццвввввввв┌Ъвв┌┌┌┌ЪЪЪЪЪЪЪвввввввцццвввввввв┌Ъв┌┌┌┌┌┌┌┌┌┌┌Ъвввввввцццвввввввв┌Ъ┌┌┌в┌┌┌┌┌┌┌┌Ъвввввввцццвввввввв┌Ъ┌┌Ъвввввввв┌Ъвввввввцццвввввввв┌┌┌┌ЪЪвЪЪЪЪЪЪ┌Ъвввввввцццвввввввв┌Ъ┌┌┌Ъ┌┌┌┌┌┌┌┌Ъвввввввцццвввввввв┌Ъв┌┌┌┌┌┌┌┌┌┌┌ввввввввцццвввввввв┌Ъвв┌┌┌Ъввввввввввввввцццвввввввв┌Ъввв┌┌Ъввввввввввввввцццвввввввв┌ввввв┌вввввввввввввввцццввввввввввввввввввввввввввввввцццввввввввввввввввввввввввввввввцццввввввввввввввввввввввввввввввцццввввввввввввввввввввввввввввввцццввввввввввввввввввввввввввввввцццввввввввввввввввввввввввввввввцццввввввввввввввввввввввввввввввцццввввввввввввввввввввввввввввввцццввввввввввввввввввввввввввввввцццввввввввввввввввввввввввввввввцццввввввввввввввввввввввввввввввцццвввiiiiiiiiiiiiiiiiiiiiiiвввввцццвввЪiiiiiiiiiiiiiiiiiiiiiвввввцццвввЪЪЪЪЪЪЪЪЪЪЪЪЪЪЪЪЪЪЪЪiiвввввцццвввЪЪЪЪЪЪЪЪЪЪЪЪЪЪЪЪЪЪЪЪЪiвввввцццвввiiiiiiiiiiiiiiiiiiiiiiвввввцццвввЪiiiiiiiiiiiiiiiiiiiiiвввввцццвввЪЪЪЪЪЪЪЪЪЪЪЪЪЪЪЪЪЪЪЪiiвввввццц                                                                                                                                                                                                                                                                                                                                                                                                                                                                                                                                                                                                                                                                                                                                                                                                                                                                                                                                                                                                                                                                                                                                                                                                                                                                                                                                                                                                                                                                     