/* XPM */
static char *magick[] = {
/* columns rows colors chars-per-pixel */
"33 219 7 1",
"  c #dfdfdf",
". c #ffffff",
"X c #595959",
"o c #a0a0a4",
"O c #c0c0c0",
"+ c #808080",
"@ c #000000",
/* pixels */
"   ....................XX     o o",
" O .XXXXXXXXXXXXXXXXXXXXX  O  OOO",
"   XX+X+X+X+X+X+X+X+X++X+     OOO",
" O .....................X O O OOO",
"   ....................XX     OOO",
" O .XXXXXXXXXXXXXXXXXXXXX  O  OOO",
"   XX+X+X+X+X+X+X+X+X++X+    OOOO",
" O                         O   OO",
"                         O   OOOO",
"O  O  O  O  O  O  O  O O   O  OOO",
"  O     O     O     O    O    OOO",
"O   O O   O O   O O    O    O OOO",
"        O     O     O    O    OOO",
"  O O O     O     O   O O   O OOO",
" O      O O   O O   O     O   OOO",
"   O  O     O     O  O  O  O  OOO",
"     O  O     O  O     O     OOOO",
" O O      O O  O     O     O   OO",
"     O O+     X   O O  O O   OOOO",
" O O    +. O ++.O          O  OOO",
"     O  X.  +++.  O O O  O    OOO",
"O  O    +. +++++++++++ O   O  OOO",
"  O  O  +.Xo+.++++++++.  O   OOOO",
"O       ++++.. ......+.    O   OO",
"  O O O +.++.        X. O    OOOO",
"O       +.+oX ++X++X++.    O  OOO",
"  O O  O+. Xo+++o++o++. O     OOO",
"O       +.  ++++.......   O O OOO",
"  O O O +.   +++.     O O     OOO",
"O        . O  ++. O O      O  OOO",
"  O O  O     O +.     O O    OOOO",
"O    O   O O    .O  O      O   OO",
"  O    O     O     O  O O O  OOOO",
"     O  O  O   O O            OOO",
" O O      O  O     O O O  O   OOO",
"      O O        O      O   O OOO",
" O O      O O O O  O  O   O   OOO",
"      O O           O      O  OOO",
" O O      O O O  O    O O    OOOO",
"      O O      O    O      O   OO",
" O O      O  O   O   O O O   OOOO",
"      O O  O   O   O       O  OOO",
" O O         O   O   O O      OOO",
"     O O O O   O   O      O O OOO",
" O  O        O   O   O O      OOO",
"  O   O  O O    @  O  @  O O  OOO",
"    O   O    O O@@   O@      OOOO",
"O O   O    O    @.@O  @  O O   OO",
"    O   O@@@@@@@@..@  @ O    OOOO",
"  O   O  @....... ..@ @    O  OOO",
"    O    @       O ..@@ O     OOO",
"O O    O @ O O O   .@ @   O O OOO",
"    O    @@@@@@@@ .@+ @ O     OOO",
"  O    O +++++++@.@X  @    O  OOO",
" O  O          +@@+   @ O    OOOO",
"      O O O O  +@+    @  O O   OO",
" O O          O++  O O       OOOO",
"      O O O O  + O     O O O  OOO",
" O O               O          OOO",
"     O O  O  O O O    O O O O OOO",
" O  O    O  O      O O        OOO",
"  O    O      O  O      O  O  OOO",
"    O    O O    O  O O    O  OOOO",
"O O    O      O         O      OO",
"    O O  O O    O O O O   O O o O",
"  O         O O         O     OOO",
" O  O O O       O O  O    O   OOO",
"          O O O    O    O   O OOO",
" O O O  O       O    O O  O   OOO",
"      O   O  O O   O       O  OOO",
" O  O   O   O    O   O O     OOOO",
"  O       O    O   O     O O   OO",
"    O O     O    O   O  O    OOOO",
"O O     O O    O   O  O    O  OOO",
"    O  O    O O  O      O     OOO",
"  O  O    O         O O   O O OOO",
" O     O    O O O  O    O     OOO",
"     O    O      O    O    O  OOO",
" O O   O O  O  O   O    O    OOOO",
"     O       O   O    O  O O   OO",
" O  O  O O     O   O         OOOO",
"  O        O  X  O   O O O O  OOO",
"    O O  O   Xo.   O          OOO",
"O O    O    +++. O  O  O  O O OOO",
"    O    O Xo+++++++++   O    OOO",
"  O    O  +++.++++++++.O   O  OOO",
" O  O    Xo+.. ......+.  O   OOOO",
"       O  ++.        +.    O   OO",
" O O O    XoX X++X++++. O    OOOO",
"       O   +++o++o++++.    O  OOO",
" O O  O     ++++....... O     OOO",
"    O     O  +++.     O   O O OOO",
" O    O O     ++. O     O     OOO",
"    O     O O  +.   O O    O  OOO",
" O    O       O . O     O    OOOO",
"  O O   O O O   O  O  O  O O   OO",
"      O       O      O       OOOO",
"  O O  O  O O    O O     O O  OOO",
" O       O    O      O O      OOO",
"     O O    O    O O     O  O OOO",
" O O     O    O O    O  O     OOO",
"    O  O  O O      O  O   O O OOO",
" O    O       O O       O     OOO",
"    O     O O     O O O    O  OOO",
" O    O O     O  O      O    OOOO",
"    O    O  O  O   O  O    O   OO",
" O O  O    O         O  O O  OOOO",
"         O     O O O          OOO",
" O O O O   O O  @    O O O  O OOO",
"         O      @@ O      O   OOO",
" O O  O    O O O@.@  O  O   O OOO",
"       O @@@@@@@@..@  O       OOO",
" O O O   @....... ..@   O O   OOO",
"         @         ..@O     O OOO",
" O O O O @ O O O O .@   O  O  OOO",
"         @@@@@@@@ .@X O  O    OOO",
" O  O  O XoXoXoX@.@+       O  OOO",
"  O  O         o@@+   O  O    OOO",
"       O     O X@+      O  O  OOO",
" O O O   O O   o+   O O       OOO",
"       O     O X  O     O O O OOO",
"  O  O     O       O  O       OOO",
" O  O  O O   O   O   O  O O   OOO",
"           O   O   O        O OOO",
" O O O O  O  O   O   O O  O   OOO",
"        O      O   O       O  OOO",
" O O  O   O O    O   O O O   OOOO",
"    O   O      O   O       O   OO",
" O    O   O O    O   O  O    OOOO",
"    O   O    O O      O    O  OOO",
" O    O   O      O O    O     OOO",
"    O      O  O O     O   O O OOO",
" O O  O O    O    O O   O     OOO",
"           O    O     O    O  OOO",
" O O O O O   O    O  O  O    OOOO",
"           O    O  O     O O   OO",
" O O  O  O   O       O       OOOO",
"       O   O   O O O   O O O  OOO",
" O O O   O   O       O        OOO",
"    ..@@@. OO O OO OO.@@@.O O OOO",
" O  ..@O@.............@O@.    OOO",
"  O ..@@@@@@@@@@@@@@@@@@@. O  OOO",
"    ..@@@@@@@@@@@@@@@@@@@.   OOOO",
"  O ..@ @.............@ @. O   OO",
" O  ..@@@.O O O@@@O O.@@@.   OOOO",
"    ..@@@.O O @@@@ O .@@@. O  OOO",
" O O..@O@. O @@ @@O O.@O@.    OOO",
"    ..@@@.O O@ O@@ O .@@@.  O OOO",
" O  ..@@@. O O O@@O O.@@@. O  OOO",
"  O ..@ @.O O @@@@@O .@ @.    OOO",
"    ..@@@. O O@@@@@ O.@@@. O  OOO",
"  O ..@@@.............@@@.    OOO",
" O  ..@O@@@@@@@@@@@@@@@O@. O  OOO",
"    ..@@@@@@@@@@@@@@@@@@@.    OOO",
" O O..@@@.............@@@. O OOOO",
"    ..@ @.O O O @@O O.@ @.     OO",
" O  ..@@@. O O @@@@ O.@@@. O OOOO",
"  O ..@@@. O O@@O @O .@@@.    OOO",
"    ..@O@.O O O O @ O.@O@. O  OOO",
"  O ..@@@.O O O @@@O .@@@.    OOO",
" O  ..@@@. O O@@@@O O.@@@. O  OOO",
"   O                     O    OOO",
" O   O O O O  O O  O O     O OOOO",
"   O        O    O     O O     OO",
" O   O O  O   O    O  O    O OOOO",
"   O    O   O    O  O    O    OOO",
" O  OO O OO O OO O O OO O  O  OOO",
"      O O  O O @@@O O  O O    OOO",
" O OO O O O O @@X+@ O O OO O  OOO",
"     O O O O@@@+++@@ O O O    OOO",
" O  O O O O@@X+++++@@O O O  O OOO",
"   O O O O@@+++++++X@@ O O    OOO",
" O  O O @@@++..+X..++@@ O  O  OOO",
"    O O@@+++X..++..++X@@O O   OOO",
" O  O @@@+++++++++X++@@@@O  O OOO",
"  O  O@@@@+++++X++++@@@+@O    OOO",
"    O @X+@@+++..++++@@++@  O  OOO",
"  O  O@+++@@+X..+++@@+++@O    OOO",
" O  O @++++@@+++X@@@+++X@ O O OOO",
"     O@++X++@@++@@+++..+@O    OOO",
" O OO @+++..+@@@@+++X..+@  O  OOO",
"     O@@++..++@@++++++X+@O    OOO",
" O  O O@@+X+++@++..++++@ O O  OOO",
"  O  O O @++++@+X..++@ O O    OOO",
"    O O O @@+X@++++X@ O O  O OOOO",
" O O O O O @@+@+++@@ O O O     OO",
"    O O O O @@@+@@ O O O O O OOOO",
"  O  O O O O @@@@O O O O O    OOO",
" O        O                O  OOO",
"    O O O    O O  O O O O O   OOO",
" O       O O     O          O OOO",
"   O O O    O  O    O O O O   OOO",
" O       O    O  O          O OOO",
"     O O    O       O O O O   OOO",
" O O     O    O O O         O OOO",
"    O  O   O O      O  O  O   OOO",
" O    O  O +++++X+    O  O    OOO",
"    O     +++++++oX O       O OOO",
" O    O O+++++++++++  O O  O  OOO",
"    O   +++++++++++oX    O    OOO",
" O O  O+++++o+++++++++     O  OOO",
"       +++++++++o+++++.O O    OOO",
" O O   +++++++++++++++.    O  OOO",
"     O +++o+++++++++++.O  O   OOO",
" O  O  ++++++++++++o++.  O  O OOO",
"  O    ++++++++o++++++.       OOO",
"    O  +++++++++++++++. O O  OOOO",
"  O  O  ++++o++++++++..    O   OO",
" O       +++++++++++.. O     OOOO",
"     O O  ++++++o++..    O O  OOO",
" O O       +++++++.. O O      OOO",
"    O  O O  .......      O  O OOO",
" O    O    O       O O     O  OOO",
"    O    O     O O     O O    OOO",
" O    O    O O    O O      O  OOO",
"  O O    O      O      O O    OOO",
"      O O  O O    O O      O OOOO",
" O O O        O O      O O     OO",
"       O O O      O O      O OOOO"
};
